P3
# Created by GIMP version 2.10.30 PNM plug-in
416 16
255
0
0
0
0
0
0
0
0
0
0
0
0
0
0
0
0
0
0
0
0
0
0
0
0
0
0
0
0
0
0
0
0
0
0
0
0
0
0
0
0
0
0
0
0
0
0
0
0
0
0
0
0
0
0
0
0
0
0
0
0
0
0
0
0
0
0
0
0
0
0
0
0
0
0
0
0
0
0
0
0
0
0
0
0
0
0
0
0
0
0
0
0
0
0
0
0
0
0
0
0
0
0
0
0
0
0
0
0
0
0
0
0
0
0
0
0
0
0
0
0
0
0
0
0
0
0
0
0
0
0
0
0
0
0
0
0
0
0
0
0
0
0
0
0
0
0
0
0
0
0
0
0
0
0
0
0
0
0
0
0
0
0
0
0
0
0
0
0
0
0
0
0
0
0
0
0
0
0
0
0
0
0
0
0
0
0
0
0
0
0
0
0
0
0
0
0
0
0
0
0
0
0
0
0
0
0
0
0
0
0
0
0
0
0
0
0
0
0
0
0
0
0
0
0
0
0
0
0
0
0
0
0
0
0
0
0
0
0
0
0
0
0
0
0
0
0
0
0
0
0
0
0
0
0
0
0
0
0
0
0
0
0
0
0
0
0
0
0
0
0
0
0
0
0
0
0
0
0
0
0
0
0
0
0
0
0
0
0
0
0
0
0
0
0
0
0
0
0
0
0
0
0
0
0
0
0
0
0
0
0
0
0
0
0
0
0
0
0
0
0
0
0
0
0
0
0
0
0
0
0
0
0
0
0
0
0
0
0
0
0
0
0
0
0
0
0
0
0
0
0
0
0
0
0
0
0
0
0
0
0
0
0
0
0
0
0
0
0
0
0
0
0
0
0
0
0
0
0
0
0
0
0
0
0
0
0
0
0
0
0
0
0
0
0
0
0
0
0
0
0
0
0
0
0
0
0
0
0
0
0
0
0
0
0
0
0
0
0
0
0
0
0
0
0
0
0
0
0
0
0
0
0
0
0
0
0
0
0
0
0
0
0
0
0
0
0
0
0
0
0
0
0
0
0
0
0
0
0
0
0
0
0
0
0
0
0
0
0
0
0
0
0
0
0
0
0
0
0
0
0
0
0
0
0
0
0
0
0
0
0
0
0
0
0
0
0
0
0
0
0
0
0
0
0
0
0
0
0
0
0
0
0
0
0
0
0
0
0
0
0
0
0
0
0
0
0
0
0
0
0
0
0
0
0
0
0
0
0
0
0
0
0
0
0
0
0
0
0
0
0
0
0
0
0
0
0
0
0
0
0
0
0
0
0
0
0
0
0
0
0
0
0
0
0
0
0
0
0
0
0
0
0
0
0
0
0
0
0
0
0
0
0
0
0
0
0
0
0
0
0
0
0
0
0
0
0
0
0
0
0
0
0
0
0
0
0
0
0
0
0
0
0
0
0
0
0
0
0
0
0
0
0
0
0
0
0
0
0
0
0
0
0
0
0
0
0
0
0
0
0
0
0
0
0
0
0
0
0
0
0
0
0
0
0
0
0
0
0
0
0
0
0
0
0
0
0
0
0
0
0
0
0
0
0
0
0
0
0
0
0
0
0
0
0
0
0
0
0
0
0
0
0
0
0
0
0
0
0
0
0
0
0
0
0
0
0
0
0
0
0
0
0
0
0
0
0
0
0
0
0
0
0
0
0
0
0
0
0
0
0
0
0
0
0
0
0
0
0
0
0
0
0
0
0
0
0
0
0
0
0
0
0
0
0
0
0
0
0
0
0
0
0
0
0
0
0
0
0
0
0
0
0
0
0
0
0
0
0
0
0
0
0
0
0
0
0
0
0
0
0
0
0
0
0
0
0
0
0
0
0
0
0
0
0
0
0
0
0
0
0
0
0
0
0
0
0
0
0
0
0
0
0
0
0
0
0
0
0
0
0
0
0
0
0
0
0
0
0
0
0
0
0
0
0
0
0
0
0
0
0
0
0
0
0
0
0
0
0
0
0
0
0
0
0
0
0
0
0
0
0
0
0
0
0
0
0
0
0
0
0
0
0
0
0
0
0
0
0
0
0
0
0
0
0
0
0
0
0
0
0
0
0
0
0
0
0
0
0
0
0
0
0
0
0
0
0
0
0
0
0
0
0
0
0
0
0
0
0
0
0
0
0
0
0
0
0
0
0
0
0
0
0
0
0
0
0
0
0
0
0
0
0
0
0
0
0
0
0
0
0
0
0
0
0
0
0
0
0
0
0
0
0
0
0
0
0
0
0
0
0
0
0
0
0
0
0
0
0
0
0
0
0
0
0
0
0
0
0
0
0
0
0
0
0
0
0
0
0
0
0
0
0
0
0
0
0
0
0
0
0
0
0
0
0
0
0
0
0
0
0
0
0
0
0
0
0
0
0
0
0
0
0
0
0
0
0
0
0
0
0
0
0
0
0
0
0
0
0
0
0
0
0
0
0
0
0
0
0
0
0
0
0
0
0
0
0
0
0
0
0
0
0
0
0
0
0
0
0
0
0
0
0
0
0
0
0
0
0
0
0
0
0
0
0
0
0
0
0
0
0
0
0
0
0
0
0
0
0
0
0
0
0
0
0
0
0
0
0
0
0
0
0
0
0
0
0
0
0
0
0
0
0
0
0
0
0
0
0
0
0
0
0
0
0
0
0
0
0
0
0
0
0
0
0
0
0
0
0
0
0
0
0
0
0
0
0
0
0
0
0
0
0
0
0
0
0
0
0
0
0
0
0
0
0
0
0
0
0
0
0
0
0
0
0
0
0
0
0
0
0
0
0
0
0
0
0
0
0
0
0
0
0
0
0
0
0
0
0
0
0
0
0
0
0
0
0
0
0
0
0
0
0
0
0
0
0
0
0
0
0
0
0
0
252
252
252
252
252
252
252
252
252
252
252
252
252
252
252
252
252
252
0
0
0
0
0
0
0
0
0
0
0
0
0
0
0
0
0
0
0
0
0
0
0
0
252
252
252
252
252
252
252
252
252
252
252
252
252
252
252
252
252
252
252
252
252
252
252
252
0
0
0
0
0
0
0
0
0
0
0
0
0
0
0
0
0
0
0
0
0
0
0
0
0
0
0
0
0
0
252
252
252
252
252
252
252
252
252
252
252
252
252
252
252
252
252
252
0
0
0
0
0
0
0
0
0
0
0
0
0
0
0
0
0
0
0
0
0
0
0
0
252
252
252
252
252
252
252
252
252
252
252
252
252
252
252
252
252
252
252
252
252
252
252
252
0
0
0
0
0
0
0
0
0
0
0
0
0
0
0
0
0
0
0
0
0
0
0
0
252
252
252
252
252
252
252
252
252
252
252
252
252
252
252
252
252
252
252
252
252
252
252
252
252
252
252
252
252
252
0
0
0
0
0
0
0
0
0
0
0
0
0
0
0
0
0
0
252
252
252
252
252
252
252
252
252
252
252
252
252
252
252
252
252
252
252
252
252
252
252
252
252
252
252
252
252
252
0
0
0
0
0
0
0
0
0
0
0
0
0
0
0
0
0
0
0
0
0
0
0
0
252
252
252
252
252
252
252
252
252
252
252
252
252
252
252
252
252
252
0
0
0
0
0
0
0
0
0
0
0
0
0
0
0
0
0
0
0
0
0
0
0
0
252
252
252
252
252
252
0
0
0
0
0
0
0
0
0
0
0
0
0
0
0
0
0
0
252
252
252
252
252
252
0
0
0
0
0
0
0
0
0
0
0
0
0
0
0
0
0
0
0
0
0
0
0
0
252
252
252
252
252
252
252
252
252
252
252
252
252
252
252
252
252
252
0
0
0
0
0
0
0
0
0
0
0
0
0
0
0
0
0
0
0
0
0
0
0
0
0
0
0
0
0
0
0
0
0
0
0
0
0
0
0
0
0
0
0
0
0
0
0
0
252
252
252
252
252
252
0
0
0
0
0
0
0
0
0
0
0
0
0
0
0
0
0
0
252
252
252
252
252
252
0
0
0
0
0
0
0
0
0
0
0
0
0
0
0
0
0
0
252
252
252
252
252
252
0
0
0
0
0
0
0
0
0
0
0
0
0
0
0
0
0
0
252
252
252
252
252
252
0
0
0
0
0
0
0
0
0
0
0
0
0
0
0
0
0
0
0
0
0
0
0
0
0
0
0
0
0
0
0
0
0
0
0
0
0
0
0
0
0
0
252
252
252
252
252
252
0
0
0
0
0
0
0
0
0
0
0
0
0
0
0
0
0
0
252
252
252
252
252
252
0
0
0
0
0
0
0
0
0
0
0
0
0
0
0
0
0
0
252
252
252
252
252
252
0
0
0
0
0
0
0
0
0
0
0
0
0
0
0
0
0
0
252
252
252
252
252
252
0
0
0
0
0
0
0
0
0
0
0
0
0
0
0
0
0
0
0
0
0
0
0
0
252
252
252
252
252
252
252
252
252
252
252
252
252
252
252
252
252
252
0
0
0
0
0
0
0
0
0
0
0
0
0
0
0
0
0
0
0
0
0
0
0
0
252
252
252
252
252
252
252
252
252
252
252
252
252
252
252
252
252
252
252
252
252
252
252
252
0
0
0
0
0
0
0
0
0
0
0
0
0
0
0
0
0
0
0
0
0
0
0
0
0
0
0
0
0
0
252
252
252
252
252
252
252
252
252
252
252
252
252
252
252
252
252
252
0
0
0
0
0
0
0
0
0
0
0
0
0
0
0
0
0
0
0
0
0
0
0
0
252
252
252
252
252
252
252
252
252
252
252
252
252
252
252
252
252
252
252
252
252
252
252
252
0
0
0
0
0
0
0
0
0
0
0
0
0
0
0
0
0
0
0
0
0
0
0
0
0
0
0
0
0
0
252
252
252
252
252
252
252
252
252
252
252
252
252
252
252
252
252
252
0
0
0
0
0
0
0
0
0
0
0
0
0
0
0
0
0
0
0
0
0
0
0
0
252
252
252
252
252
252
252
252
252
252
252
252
252
252
252
252
252
252
252
252
252
252
252
252
252
252
252
252
252
252
0
0
0
0
0
0
0
0
0
0
0
0
0
0
0
0
0
0
252
252
252
252
252
252
0
0
0
0
0
0
0
0
0
0
0
0
0
0
0
0
0
0
252
252
252
252
252
252
0
0
0
0
0
0
0
0
0
0
0
0
0
0
0
0
0
0
252
252
252
252
252
252
0
0
0
0
0
0
0
0
0
0
0
0
0
0
0
0
0
0
252
252
252
252
252
252
0
0
0
0
0
0
0
0
0
0
0
0
0
0
0
0
0
0
252
252
252
252
252
252
0
0
0
0
0
0
0
0
0
0
0
0
0
0
0
0
0
0
252
252
252
252
252
252
0
0
0
0
0
0
0
0
0
0
0
0
0
0
0
0
0
0
252
252
252
252
252
252
0
0
0
0
0
0
0
0
0
0
0
0
0
0
0
0
0
0
252
252
252
252
252
252
0
0
0
0
0
0
0
0
0
0
0
0
0
0
0
0
0
0
252
252
252
252
252
252
0
0
0
0
0
0
0
0
0
0
0
0
0
0
0
0
0
0
252
252
252
252
252
252
0
0
0
0
0
0
0
0
0
0
0
0
0
0
0
0
0
0
252
252
252
252
252
252
252
252
252
252
252
252
252
252
252
252
252
252
252
252
252
252
252
252
252
252
252
252
252
252
0
0
0
0
0
0
0
0
0
0
0
0
0
0
0
0
0
0
0
0
0
0
0
0
252
252
252
252
252
252
252
252
252
252
252
252
252
252
252
252
252
252
0
0
0
0
0
0
0
0
0
0
0
0
0
0
0
0
0
0
0
0
0
0
0
0
252
252
252
252
252
252
252
252
252
252
252
252
252
252
252
252
252
252
252
252
252
252
252
252
0
0
0
0
0
0
0
0
0
0
0
0
0
0
0
0
0
0
0
0
0
0
0
0
0
0
0
0
0
0
252
252
252
252
252
252
252
252
252
252
252
252
252
252
252
252
252
252
0
0
0
0
0
0
0
0
0
0
0
0
0
0
0
0
0
0
0
0
0
0
0
0
252
252
252
252
252
252
252
252
252
252
252
252
252
252
252
252
252
252
252
252
252
252
252
252
0
0
0
0
0
0
0
0
0
0
0
0
0
0
0
0
0
0
0
0
0
0
0
0
252
252
252
252
252
252
252
252
252
252
252
252
252
252
252
252
252
252
252
252
252
252
252
252
252
252
252
252
252
252
0
0
0
0
0
0
0
0
0
0
0
0
0
0
0
0
0
0
252
252
252
252
252
252
252
252
252
252
252
252
252
252
252
252
252
252
252
252
252
252
252
252
252
252
252
252
252
252
0
0
0
0
0
0
0
0
0
0
0
0
0
0
0
0
0
0
0
0
0
0
0
0
252
252
252
252
252
252
252
252
252
252
252
252
252
252
252
252
252
252
0
0
0
0
0
0
0
0
0
0
0
0
0
0
0
0
0
0
0
0
0
0
0
0
252
252
252
252
252
252
0
0
0
0
0
0
0
0
0
0
0
0
0
0
0
0
0
0
252
252
252
252
252
252
0
0
0
0
0
0
0
0
0
0
0
0
0
0
0
0
0
0
0
0
0
0
0
0
252
252
252
252
252
252
252
252
252
252
252
252
252
252
252
252
252
252
0
0
0
0
0
0
0
0
0
0
0
0
0
0
0
0
0
0
0
0
0
0
0
0
0
0
0
0
0
0
0
0
0
0
0
0
0
0
0
0
0
0
0
0
0
0
0
0
252
252
252
252
252
252
0
0
0
0
0
0
0
0
0
0
0
0
0
0
0
0
0
0
252
252
252
252
252
252
0
0
0
0
0
0
0
0
0
0
0
0
0
0
0
0
0
0
252
252
252
252
252
252
0
0
0
0
0
0
0
0
0
0
0
0
0
0
0
0
0
0
252
252
252
252
252
252
0
0
0
0
0
0
0
0
0
0
0
0
0
0
0
0
0
0
0
0
0
0
0
0
0
0
0
0
0
0
0
0
0
0
0
0
0
0
0
0
0
0
252
252
252
252
252
252
0
0
0
0
0
0
0
0
0
0
0
0
0
0
0
0
0
0
252
252
252
252
252
252
0
0
0
0
0
0
0
0
0
0
0
0
0
0
0
0
0
0
252
252
252
252
252
252
0
0
0
0
0
0
0
0
0
0
0
0
0
0
0
0
0
0
252
252
252
252
252
252
0
0
0
0
0
0
0
0
0
0
0
0
0
0
0
0
0
0
0
0
0
0
0
0
252
252
252
252
252
252
252
252
252
252
252
252
252
252
252
252
252
252
0
0
0
0
0
0
0
0
0
0
0
0
0
0
0
0
0
0
0
0
0
0
0
0
252
252
252
252
252
252
252
252
252
252
252
252
252
252
252
252
252
252
252
252
252
252
252
252
0
0
0
0
0
0
0
0
0
0
0
0
0
0
0
0
0
0
0
0
0
0
0
0
0
0
0
0
0
0
252
252
252
252
252
252
252
252
252
252
252
252
252
252
252
252
252
252
0
0
0
0
0
0
0
0
0
0
0
0
0
0
0
0
0
0
0
0
0
0
0
0
252
252
252
252
252
252
252
252
252
252
252
252
252
252
252
252
252
252
252
252
252
252
252
252
0
0
0
0
0
0
0
0
0
0
0
0
0
0
0
0
0
0
0
0
0
0
0
0
0
0
0
0
0
0
252
252
252
252
252
252
252
252
252
252
252
252
252
252
252
252
252
252
0
0
0
0
0
0
0
0
0
0
0
0
0
0
0
0
0
0
0
0
0
0
0
0
252
252
252
252
252
252
252
252
252
252
252
252
252
252
252
252
252
252
252
252
252
252
252
252
252
252
252
252
252
252
0
0
0
0
0
0
0
0
0
0
0
0
0
0
0
0
0
0
252
252
252
252
252
252
0
0
0
0
0
0
0
0
0
0
0
0
0
0
0
0
0
0
252
252
252
252
252
252
0
0
0
0
0
0
0
0
0
0
0
0
0
0
0
0
0
0
252
252
252
252
252
252
0
0
0
0
0
0
0
0
0
0
0
0
0
0
0
0
0
0
252
252
252
252
252
252
0
0
0
0
0
0
0
0
0
0
0
0
0
0
0
0
0
0
252
252
252
252
252
252
0
0
0
0
0
0
0
0
0
0
0
0
0
0
0
0
0
0
252
252
252
252
252
252
0
0
0
0
0
0
0
0
0
0
0
0
0
0
0
0
0
0
252
252
252
252
252
252
0
0
0
0
0
0
0
0
0
0
0
0
0
0
0
0
0
0
252
252
252
252
252
252
0
0
0
0
0
0
0
0
0
0
0
0
0
0
0
0
0
0
252
252
252
252
252
252
0
0
0
0
0
0
0
0
0
0
0
0
0
0
0
0
0
0
252
252
252
252
252
252
0
0
0
0
0
0
0
0
0
0
0
0
0
0
0
0
0
0
252
252
252
252
252
252
252
252
252
252
252
252
252
252
252
252
252
252
252
252
252
252
252
252
252
252
252
252
252
252
0
0
0
0
0
0
0
0
0
0
0
0
0
0
0
0
0
0
252
252
252
252
252
252
0
0
0
0
0
0
0
0
0
0
0
0
0
0
0
0
0
0
252
252
252
252
252
252
0
0
0
0
0
0
0
0
0
0
0
0
0
0
0
0
0
0
252
252
252
252
252
252
0
0
0
0
0
0
0
0
0
0
0
0
0
0
0
0
0
0
252
252
252
252
252
252
0
0
0
0
0
0
0
0
0
0
0
0
0
0
0
0
0
0
252
252
252
252
252
252
0
0
0
0
0
0
0
0
0
0
0
0
0
0
0
0
0
0
252
252
252
252
252
252
0
0
0
0
0
0
0
0
0
0
0
0
0
0
0
0
0
0
252
252
252
252
252
252
0
0
0
0
0
0
0
0
0
0
0
0
0
0
0
0
0
0
252
252
252
252
252
252
0
0
0
0
0
0
0
0
0
0
0
0
0
0
0
0
0
0
252
252
252
252
252
252
0
0
0
0
0
0
0
0
0
0
0
0
0
0
0
0
0
0
0
0
0
0
0
0
0
0
0
0
0
0
0
0
0
0
0
0
0
0
0
0
0
0
252
252
252
252
252
252
0
0
0
0
0
0
0
0
0
0
0
0
0
0
0
0
0
0
0
0
0
0
0
0
0
0
0
0
0
0
0
0
0
0
0
0
0
0
0
0
0
0
252
252
252
252
252
252
0
0
0
0
0
0
0
0
0
0
0
0
0
0
0
0
0
0
252
252
252
252
252
252
0
0
0
0
0
0
0
0
0
0
0
0
0
0
0
0
0
0
252
252
252
252
252
252
0
0
0
0
0
0
0
0
0
0
0
0
0
0
0
0
0
0
252
252
252
252
252
252
0
0
0
0
0
0
0
0
0
0
0
0
0
0
0
0
0
0
0
0
0
0
0
0
0
0
0
0
0
0
252
252
252
252
252
252
0
0
0
0
0
0
0
0
0
0
0
0
0
0
0
0
0
0
0
0
0
0
0
0
0
0
0
0
0
0
0
0
0
0
0
0
0
0
0
0
0
0
0
0
0
0
0
0
0
0
0
0
0
0
252
252
252
252
252
252
0
0
0
0
0
0
0
0
0
0
0
0
0
0
0
0
0
0
252
252
252
252
252
252
0
0
0
0
0
0
0
0
0
0
0
0
252
252
252
252
252
252
0
0
0
0
0
0
0
0
0
0
0
0
0
0
0
0
0
0
0
0
0
0
0
0
252
252
252
252
252
252
0
0
0
0
0
0
0
0
0
0
0
0
0
0
0
0
0
0
0
0
0
0
0
0
0
0
0
0
0
0
0
0
0
0
0
0
0
0
0
0
0
0
252
252
252
252
252
252
252
252
252
252
252
252
0
0
0
0
0
0
252
252
252
252
252
252
252
252
252
252
252
252
0
0
0
0
0
0
0
0
0
0
0
0
0
0
0
0
0
0
252
252
252
252
252
252
0
0
0
0
0
0
0
0
0
0
0
0
0
0
0
0
0
0
252
252
252
252
252
252
0
0
0
0
0
0
0
0
0
0
0
0
0
0
0
0
0
0
252
252
252
252
252
252
0
0
0
0
0
0
0
0
0
0
0
0
0
0
0
0
0
0
252
252
252
252
252
252
0
0
0
0
0
0
0
0
0
0
0
0
0
0
0
0
0
0
252
252
252
252
252
252
0
0
0
0
0
0
0
0
0
0
0
0
0
0
0
0
0
0
252
252
252
252
252
252
0
0
0
0
0
0
0
0
0
0
0
0
0
0
0
0
0
0
252
252
252
252
252
252
0
0
0
0
0
0
0
0
0
0
0
0
0
0
0
0
0
0
252
252
252
252
252
252
0
0
0
0
0
0
0
0
0
0
0
0
0
0
0
0
0
0
252
252
252
252
252
252
0
0
0
0
0
0
0
0
0
0
0
0
0
0
0
0
0
0
252
252
252
252
252
252
0
0
0
0
0
0
0
0
0
0
0
0
0
0
0
0
0
0
252
252
252
252
252
252
0
0
0
0
0
0
0
0
0
0
0
0
0
0
0
0
0
0
252
252
252
252
252
252
0
0
0
0
0
0
0
0
0
0
0
0
0
0
0
0
0
0
0
0
0
0
0
0
0
0
0
0
0
0
252
252
252
252
252
252
0
0
0
0
0
0
0
0
0
0
0
0
0
0
0
0
0
0
0
0
0
0
0
0
0
0
0
0
0
0
252
252
252
252
252
252
0
0
0
0
0
0
0
0
0
0
0
0
0
0
0
0
0
0
252
252
252
252
252
252
0
0
0
0
0
0
0
0
0
0
0
0
0
0
0
0
0
0
252
252
252
252
252
252
0
0
0
0
0
0
0
0
0
0
0
0
0
0
0
0
0
0
252
252
252
252
252
252
0
0
0
0
0
0
0
0
0
0
0
0
0
0
0
0
0
0
252
252
252
252
252
252
0
0
0
0
0
0
0
0
0
0
0
0
0
0
0
0
0
0
252
252
252
252
252
252
0
0
0
0
0
0
0
0
0
0
0
0
0
0
0
0
0
0
252
252
252
252
252
252
0
0
0
0
0
0
0
0
0
0
0
0
0
0
0
0
0
0
252
252
252
252
252
252
0
0
0
0
0
0
0
0
0
0
0
0
0
0
0
0
0
0
252
252
252
252
252
252
0
0
0
0
0
0
0
0
0
0
0
0
0
0
0
0
0
0
252
252
252
252
252
252
0
0
0
0
0
0
0
0
0
0
0
0
0
0
0
0
0
0
0
0
0
0
0
0
0
0
0
0
0
0
0
0
0
0
0
0
0
0
0
0
0
0
252
252
252
252
252
252
0
0
0
0
0
0
0
0
0
0
0
0
0
0
0
0
0
0
252
252
252
252
252
252
0
0
0
0
0
0
0
0
0
0
0
0
0
0
0
0
0
0
252
252
252
252
252
252
0
0
0
0
0
0
0
0
0
0
0
0
0
0
0
0
0
0
252
252
252
252
252
252
0
0
0
0
0
0
0
0
0
0
0
0
0
0
0
0
0
0
252
252
252
252
252
252
0
0
0
0
0
0
0
0
0
0
0
0
0
0
0
0
0
0
252
252
252
252
252
252
0
0
0
0
0
0
0
0
0
0
0
0
0
0
0
0
0
0
252
252
252
252
252
252
0
0
0
0
0
0
0
0
0
0
0
0
0
0
0
0
0
0
252
252
252
252
252
252
0
0
0
0
0
0
0
0
0
0
0
0
0
0
0
0
0
0
252
252
252
252
252
252
0
0
0
0
0
0
0
0
0
0
0
0
0
0
0
0
0
0
252
252
252
252
252
252
0
0
0
0
0
0
0
0
0
0
0
0
0
0
0
0
0
0
0
0
0
0
0
0
0
0
0
0
0
0
0
0
0
0
0
0
0
0
0
0
0
0
252
252
252
252
252
252
0
0
0
0
0
0
0
0
0
0
0
0
0
0
0
0
0
0
0
0
0
0
0
0
0
0
0
0
0
0
0
0
0
0
0
0
0
0
0
0
0
0
252
252
252
252
252
252
0
0
0
0
0
0
0
0
0
0
0
0
0
0
0
0
0
0
252
252
252
252
252
252
0
0
0
0
0
0
0
0
0
0
0
0
0
0
0
0
0
0
252
252
252
252
252
252
0
0
0
0
0
0
0
0
0
0
0
0
0
0
0
0
0
0
252
252
252
252
252
252
0
0
0
0
0
0
0
0
0
0
0
0
0
0
0
0
0
0
0
0
0
0
0
0
0
0
0
0
0
0
252
252
252
252
252
252
0
0
0
0
0
0
0
0
0
0
0
0
0
0
0
0
0
0
0
0
0
0
0
0
0
0
0
0
0
0
0
0
0
0
0
0
0
0
0
0
0
0
0
0
0
0
0
0
0
0
0
0
0
0
252
252
252
252
252
252
0
0
0
0
0
0
0
0
0
0
0
0
0
0
0
0
0
0
252
252
252
252
252
252
0
0
0
0
0
0
0
0
0
0
0
0
252
252
252
252
252
252
0
0
0
0
0
0
0
0
0
0
0
0
0
0
0
0
0
0
0
0
0
0
0
0
252
252
252
252
252
252
0
0
0
0
0
0
0
0
0
0
0
0
0
0
0
0
0
0
0
0
0
0
0
0
0
0
0
0
0
0
0
0
0
0
0
0
0
0
0
0
0
0
252
252
252
252
252
252
252
252
252
252
252
252
0
0
0
0
0
0
252
252
252
252
252
252
252
252
252
252
252
252
0
0
0
0
0
0
0
0
0
0
0
0
0
0
0
0
0
0
252
252
252
252
252
252
0
0
0
0
0
0
0
0
0
0
0
0
0
0
0
0
0
0
252
252
252
252
252
252
0
0
0
0
0
0
0
0
0
0
0
0
0
0
0
0
0
0
252
252
252
252
252
252
0
0
0
0
0
0
0
0
0
0
0
0
0
0
0
0
0
0
252
252
252
252
252
252
0
0
0
0
0
0
0
0
0
0
0
0
0
0
0
0
0
0
252
252
252
252
252
252
0
0
0
0
0
0
0
0
0
0
0
0
0
0
0
0
0
0
252
252
252
252
252
252
0
0
0
0
0
0
0
0
0
0
0
0
0
0
0
0
0
0
252
252
252
252
252
252
0
0
0
0
0
0
0
0
0
0
0
0
0
0
0
0
0
0
252
252
252
252
252
252
0
0
0
0
0
0
0
0
0
0
0
0
0
0
0
0
0
0
252
252
252
252
252
252
0
0
0
0
0
0
0
0
0
0
0
0
0
0
0
0
0
0
252
252
252
252
252
252
0
0
0
0
0
0
0
0
0
0
0
0
0
0
0
0
0
0
252
252
252
252
252
252
0
0
0
0
0
0
0
0
0
0
0
0
0
0
0
0
0
0
252
252
252
252
252
252
0
0
0
0
0
0
0
0
0
0
0
0
0
0
0
0
0
0
0
0
0
0
0
0
0
0
0
0
0
0
252
252
252
252
252
252
0
0
0
0
0
0
0
0
0
0
0
0
0
0
0
0
0
0
0
0
0
0
0
0
0
0
0
0
0
0
252
252
252
252
252
252
0
0
0
0
0
0
0
0
0
0
0
0
0
0
0
0
0
0
252
252
252
252
252
252
0
0
0
0
0
0
0
0
0
0
0
0
0
0
0
0
0
0
252
252
252
252
252
252
0
0
0
0
0
0
0
0
0
0
0
0
0
0
0
0
0
0
252
252
252
252
252
252
0
0
0
0
0
0
0
0
0
0
0
0
0
0
0
0
0
0
252
252
252
252
252
252
0
0
0
0
0
0
0
0
0
0
0
0
0
0
0
0
0
0
252
252
252
252
252
252
0
0
0
0
0
0
0
0
0
0
0
0
0
0
0
0
0
0
252
252
252
252
252
252
0
0
0
0
0
0
0
0
0
0
0
0
0
0
0
0
0
0
252
252
252
252
252
252
0
0
0
0
0
0
0
0
0
0
0
0
0
0
0
0
0
0
252
252
252
252
252
252
0
0
0
0
0
0
0
0
0
0
0
0
0
0
0
0
0
0
252
252
252
252
252
252
0
0
0
0
0
0
0
0
0
0
0
0
0
0
0
0
0
0
0
0
0
0
0
0
0
0
0
0
0
0
0
0
0
0
0
0
0
0
0
0
0
0
252
252
252
252
252
252
0
0
0
0
0
0
0
0
0
0
0
0
0
0
0
0
0
0
252
252
252
252
252
252
0
0
0
0
0
0
0
0
0
0
0
0
0
0
0
0
0
0
252
252
252
252
252
252
0
0
0
0
0
0
0
0
0
0
0
0
0
0
0
0
0
0
252
252
252
252
252
252
0
0
0
0
0
0
0
0
0
0
0
0
0
0
0
0
0
0
252
252
252
252
252
252
0
0
0
0
0
0
0
0
0
0
0
0
0
0
0
0
0
0
252
252
252
252
252
252
0
0
0
0
0
0
0
0
0
0
0
0
0
0
0
0
0
0
0
0
0
0
0
0
0
0
0
0
0
0
0
0
0
0
0
0
0
0
0
0
0
0
252
252
252
252
252
252
0
0
0
0
0
0
0
0
0
0
0
0
0
0
0
0
0
0
252
252
252
252
252
252
0
0
0
0
0
0
0
0
0
0
0
0
0
0
0
0
0
0
252
252
252
252
252
252
0
0
0
0
0
0
0
0
0
0
0
0
0
0
0
0
0
0
0
0
0
0
0
0
0
0
0
0
0
0
0
0
0
0
0
0
0
0
0
0
0
0
252
252
252
252
252
252
0
0
0
0
0
0
0
0
0
0
0
0
0
0
0
0
0
0
0
0
0
0
0
0
0
0
0
0
0
0
0
0
0
0
0
0
0
0
0
0
0
0
252
252
252
252
252
252
0
0
0
0
0
0
0
0
0
0
0
0
0
0
0
0
0
0
0
0
0
0
0
0
0
0
0
0
0
0
0
0
0
0
0
0
0
0
0
0
0
0
252
252
252
252
252
252
0
0
0
0
0
0
0
0
0
0
0
0
0
0
0
0
0
0
252
252
252
252
252
252
0
0
0
0
0
0
0
0
0
0
0
0
0
0
0
0
0
0
0
0
0
0
0
0
0
0
0
0
0
0
252
252
252
252
252
252
0
0
0
0
0
0
0
0
0
0
0
0
0
0
0
0
0
0
0
0
0
0
0
0
0
0
0
0
0
0
0
0
0
0
0
0
0
0
0
0
0
0
0
0
0
0
0
0
0
0
0
0
0
0
252
252
252
252
252
252
0
0
0
0
0
0
0
0
0
0
0
0
0
0
0
0
0
0
252
252
252
252
252
252
0
0
0
0
0
0
252
252
252
252
252
252
0
0
0
0
0
0
0
0
0
0
0
0
0
0
0
0
0
0
0
0
0
0
0
0
0
0
0
0
0
0
252
252
252
252
252
252
0
0
0
0
0
0
0
0
0
0
0
0
0
0
0
0
0
0
0
0
0
0
0
0
0
0
0
0
0
0
0
0
0
0
0
0
0
0
0
0
0
0
252
252
252
252
252
252
0
0
0
0
0
0
252
252
252
252
252
252
0
0
0
0
0
0
252
252
252
252
252
252
0
0
0
0
0
0
0
0
0
0
0
0
0
0
0
0
0
0
252
252
252
252
252
252
252
252
252
252
252
252
0
0
0
0
0
0
0
0
0
0
0
0
252
252
252
252
252
252
0
0
0
0
0
0
0
0
0
0
0
0
0
0
0
0
0
0
252
252
252
252
252
252
0
0
0
0
0
0
0
0
0
0
0
0
0
0
0
0
0
0
252
252
252
252
252
252
0
0
0
0
0
0
0
0
0
0
0
0
0
0
0
0
0
0
252
252
252
252
252
252
0
0
0
0
0
0
0
0
0
0
0
0
0
0
0
0
0
0
252
252
252
252
252
252
0
0
0
0
0
0
0
0
0
0
0
0
0
0
0
0
0
0
252
252
252
252
252
252
0
0
0
0
0
0
0
0
0
0
0
0
0
0
0
0
0
0
252
252
252
252
252
252
0
0
0
0
0
0
0
0
0
0
0
0
0
0
0
0
0
0
252
252
252
252
252
252
0
0
0
0
0
0
0
0
0
0
0
0
0
0
0
0
0
0
252
252
252
252
252
252
0
0
0
0
0
0
0
0
0
0
0
0
0
0
0
0
0
0
252
252
252
252
252
252
0
0
0
0
0
0
0
0
0
0
0
0
0
0
0
0
0
0
0
0
0
0
0
0
0
0
0
0
0
0
0
0
0
0
0
0
0
0
0
0
0
0
0
0
0
0
0
0
0
0
0
0
0
0
252
252
252
252
252
252
0
0
0
0
0
0
0
0
0
0
0
0
0
0
0
0
0
0
0
0
0
0
0
0
0
0
0
0
0
0
252
252
252
252
252
252
0
0
0
0
0
0
0
0
0
0
0
0
0
0
0
0
0
0
252
252
252
252
252
252
0
0
0
0
0
0
0
0
0
0
0
0
0
0
0
0
0
0
252
252
252
252
252
252
0
0
0
0
0
0
0
0
0
0
0
0
0
0
0
0
0
0
252
252
252
252
252
252
0
0
0
0
0
0
0
0
0
0
0
0
0
0
0
0
0
0
252
252
252
252
252
252
0
0
0
0
0
0
0
0
0
0
0
0
0
0
0
0
0
0
252
252
252
252
252
252
0
0
0
0
0
0
0
0
0
0
0
0
0
0
0
0
0
0
0
0
0
0
0
0
252
252
252
252
252
252
0
0
0
0
0
0
252
252
252
252
252
252
0
0
0
0
0
0
0
0
0
0
0
0
0
0
0
0
0
0
0
0
0
0
0
0
252
252
252
252
252
252
0
0
0
0
0
0
0
0
0
0
0
0
0
0
0
0
0
0
252
252
252
252
252
252
0
0
0
0
0
0
0
0
0
0
0
0
0
0
0
0
0
0
0
0
0
0
0
0
0
0
0
0
0
0
0
0
0
0
0
0
252
252
252
252
252
252
0
0
0
0
0
0
0
0
0
0
0
0
0
0
0
0
0
0
0
0
0
0
0
0
252
252
252
252
252
252
0
0
0
0
0
0
0
0
0
0
0
0
0
0
0
0
0
0
252
252
252
252
252
252
0
0
0
0
0
0
0
0
0
0
0
0
0
0
0
0
0
0
252
252
252
252
252
252
0
0
0
0
0
0
0
0
0
0
0
0
0
0
0
0
0
0
252
252
252
252
252
252
0
0
0
0
0
0
0
0
0
0
0
0
0
0
0
0
0
0
252
252
252
252
252
252
0
0
0
0
0
0
0
0
0
0
0
0
0
0
0
0
0
0
0
0
0
0
0
0
0
0
0
0
0
0
0
0
0
0
0
0
0
0
0
0
0
0
252
252
252
252
252
252
0
0
0
0
0
0
0
0
0
0
0
0
0
0
0
0
0
0
252
252
252
252
252
252
0
0
0
0
0
0
0
0
0
0
0
0
0
0
0
0
0
0
252
252
252
252
252
252
0
0
0
0
0
0
0
0
0
0
0
0
0
0
0
0
0
0
0
0
0
0
0
0
0
0
0
0
0
0
0
0
0
0
0
0
0
0
0
0
0
0
252
252
252
252
252
252
0
0
0
0
0
0
0
0
0
0
0
0
0
0
0
0
0
0
0
0
0
0
0
0
0
0
0
0
0
0
0
0
0
0
0
0
0
0
0
0
0
0
252
252
252
252
252
252
0
0
0
0
0
0
0
0
0
0
0
0
0
0
0
0
0
0
0
0
0
0
0
0
0
0
0
0
0
0
0
0
0
0
0
0
0
0
0
0
0
0
252
252
252
252
252
252
0
0
0
0
0
0
0
0
0
0
0
0
0
0
0
0
0
0
252
252
252
252
252
252
0
0
0
0
0
0
0
0
0
0
0
0
0
0
0
0
0
0
0
0
0
0
0
0
0
0
0
0
0
0
252
252
252
252
252
252
0
0
0
0
0
0
0
0
0
0
0
0
0
0
0
0
0
0
0
0
0
0
0
0
0
0
0
0
0
0
0
0
0
0
0
0
0
0
0
0
0
0
0
0
0
0
0
0
0
0
0
0
0
0
252
252
252
252
252
252
0
0
0
0
0
0
0
0
0
0
0
0
0
0
0
0
0
0
252
252
252
252
252
252
0
0
0
0
0
0
252
252
252
252
252
252
0
0
0
0
0
0
0
0
0
0
0
0
0
0
0
0
0
0
0
0
0
0
0
0
0
0
0
0
0
0
252
252
252
252
252
252
0
0
0
0
0
0
0
0
0
0
0
0
0
0
0
0
0
0
0
0
0
0
0
0
0
0
0
0
0
0
0
0
0
0
0
0
0
0
0
0
0
0
252
252
252
252
252
252
0
0
0
0
0
0
252
252
252
252
252
252
0
0
0
0
0
0
252
252
252
252
252
252
0
0
0
0
0
0
0
0
0
0
0
0
0
0
0
0
0
0
252
252
252
252
252
252
252
252
252
252
252
252
0
0
0
0
0
0
0
0
0
0
0
0
252
252
252
252
252
252
0
0
0
0
0
0
0
0
0
0
0
0
0
0
0
0
0
0
252
252
252
252
252
252
0
0
0
0
0
0
0
0
0
0
0
0
0
0
0
0
0
0
252
252
252
252
252
252
0
0
0
0
0
0
0
0
0
0
0
0
0
0
0
0
0
0
252
252
252
252
252
252
0
0
0
0
0
0
0
0
0
0
0
0
0
0
0
0
0
0
252
252
252
252
252
252
0
0
0
0
0
0
0
0
0
0
0
0
0
0
0
0
0
0
252
252
252
252
252
252
0
0
0
0
0
0
0
0
0
0
0
0
0
0
0
0
0
0
252
252
252
252
252
252
0
0
0
0
0
0
0
0
0
0
0
0
0
0
0
0
0
0
252
252
252
252
252
252
0
0
0
0
0
0
0
0
0
0
0
0
0
0
0
0
0
0
252
252
252
252
252
252
0
0
0
0
0
0
0
0
0
0
0
0
0
0
0
0
0
0
252
252
252
252
252
252
0
0
0
0
0
0
0
0
0
0
0
0
0
0
0
0
0
0
0
0
0
0
0
0
0
0
0
0
0
0
0
0
0
0
0
0
0
0
0
0
0
0
0
0
0
0
0
0
0
0
0
0
0
0
252
252
252
252
252
252
0
0
0
0
0
0
0
0
0
0
0
0
0
0
0
0
0
0
0
0
0
0
0
0
0
0
0
0
0
0
252
252
252
252
252
252
0
0
0
0
0
0
0
0
0
0
0
0
0
0
0
0
0
0
252
252
252
252
252
252
0
0
0
0
0
0
0
0
0
0
0
0
0
0
0
0
0
0
252
252
252
252
252
252
0
0
0
0
0
0
0
0
0
0
0
0
0
0
0
0
0
0
252
252
252
252
252
252
0
0
0
0
0
0
0
0
0
0
0
0
0
0
0
0
0
0
252
252
252
252
252
252
0
0
0
0
0
0
0
0
0
0
0
0
0
0
0
0
0
0
252
252
252
252
252
252
0
0
0
0
0
0
0
0
0
0
0
0
0
0
0
0
0
0
0
0
0
0
0
0
252
252
252
252
252
252
0
0
0
0
0
0
252
252
252
252
252
252
0
0
0
0
0
0
0
0
0
0
0
0
0
0
0
0
0
0
0
0
0
0
0
0
252
252
252
252
252
252
0
0
0
0
0
0
0
0
0
0
0
0
0
0
0
0
0
0
252
252
252
252
252
252
0
0
0
0
0
0
0
0
0
0
0
0
0
0
0
0
0
0
0
0
0
0
0
0
0
0
0
0
0
0
0
0
0
0
0
0
252
252
252
252
252
252
0
0
0
0
0
0
0
0
0
0
0
0
0
0
0
0
0
0
0
0
0
0
0
0
252
252
252
252
252
252
252
252
252
252
252
252
252
252
252
252
252
252
252
252
252
252
252
252
252
252
252
252
252
252
0
0
0
0
0
0
0
0
0
0
0
0
0
0
0
0
0
0
252
252
252
252
252
252
252
252
252
252
252
252
252
252
252
252
252
252
252
252
252
252
252
252
0
0
0
0
0
0
0
0
0
0
0
0
0
0
0
0
0
0
0
0
0
0
0
0
252
252
252
252
252
252
0
0
0
0
0
0
0
0
0
0
0
0
0
0
0
0
0
0
0
0
0
0
0
0
0
0
0
0
0
0
0
0
0
0
0
0
0
0
0
0
0
0
252
252
252
252
252
252
0
0
0
0
0
0
0
0
0
0
0
0
0
0
0
0
0
0
252
252
252
252
252
252
0
0
0
0
0
0
0
0
0
0
0
0
0
0
0
0
0
0
252
252
252
252
252
252
252
252
252
252
252
252
252
252
252
252
252
252
0
0
0
0
0
0
0
0
0
0
0
0
0
0
0
0
0
0
0
0
0
0
0
0
0
0
0
0
0
0
252
252
252
252
252
252
252
252
252
252
252
252
252
252
252
252
252
252
252
252
252
252
252
252
0
0
0
0
0
0
0
0
0
0
0
0
0
0
0
0
0
0
0
0
0
0
0
0
252
252
252
252
252
252
0
0
0
0
0
0
0
0
0
0
0
0
252
252
252
252
252
252
252
252
252
252
252
252
0
0
0
0
0
0
0
0
0
0
0
0
0
0
0
0
0
0
252
252
252
252
252
252
252
252
252
252
252
252
252
252
252
252
252
252
252
252
252
252
252
252
252
252
252
252
252
252
0
0
0
0
0
0
0
0
0
0
0
0
0
0
0
0
0
0
0
0
0
0
0
0
0
0
0
0
0
0
252
252
252
252
252
252
0
0
0
0
0
0
0
0
0
0
0
0
0
0
0
0
0
0
0
0
0
0
0
0
0
0
0
0
0
0
0
0
0
0
0
0
0
0
0
0
0
0
0
0
0
0
0
0
0
0
0
0
0
0
252
252
252
252
252
252
0
0
0
0
0
0
0
0
0
0
0
0
0
0
0
0
0
0
252
252
252
252
252
252
252
252
252
252
252
252
0
0
0
0
0
0
0
0
0
0
0
0
0
0
0
0
0
0
0
0
0
0
0
0
0
0
0
0
0
0
0
0
0
0
0
0
252
252
252
252
252
252
0
0
0
0
0
0
0
0
0
0
0
0
0
0
0
0
0
0
0
0
0
0
0
0
0
0
0
0
0
0
0
0
0
0
0
0
0
0
0
0
0
0
252
252
252
252
252
252
0
0
0
0
0
0
0
0
0
0
0
0
0
0
0
0
0
0
252
252
252
252
252
252
0
0
0
0
0
0
0
0
0
0
0
0
0
0
0
0
0
0
252
252
252
252
252
252
0
0
0
0
0
0
252
252
252
252
252
252
0
0
0
0
0
0
252
252
252
252
252
252
0
0
0
0
0
0
0
0
0
0
0
0
0
0
0
0
0
0
252
252
252
252
252
252
0
0
0
0
0
0
0
0
0
0
0
0
0
0
0
0
0
0
252
252
252
252
252
252
0
0
0
0
0
0
0
0
0
0
0
0
0
0
0
0
0
0
252
252
252
252
252
252
252
252
252
252
252
252
252
252
252
252
252
252
252
252
252
252
252
252
0
0
0
0
0
0
0
0
0
0
0
0
0
0
0
0
0
0
0
0
0
0
0
0
252
252
252
252
252
252
0
0
0
0
0
0
0
0
0
0
0
0
0
0
0
0
0
0
252
252
252
252
252
252
0
0
0
0
0
0
0
0
0
0
0
0
0
0
0
0
0
0
252
252
252
252
252
252
252
252
252
252
252
252
252
252
252
252
252
252
252
252
252
252
252
252
0
0
0
0
0
0
0
0
0
0
0
0
0
0
0
0
0
0
0
0
0
0
0
0
0
0
0
0
0
0
252
252
252
252
252
252
252
252
252
252
252
252
252
252
252
252
252
252
0
0
0
0
0
0
0
0
0
0
0
0
0
0
0
0
0
0
0
0
0
0
0
0
0
0
0
0
0
0
0
0
0
0
0
0
252
252
252
252
252
252
0
0
0
0
0
0
0
0
0
0
0
0
0
0
0
0
0
0
0
0
0
0
0
0
0
0
0
0
0
0
252
252
252
252
252
252
0
0
0
0
0
0
0
0
0
0
0
0
0
0
0
0
0
0
252
252
252
252
252
252
0
0
0
0
0
0
0
0
0
0
0
0
0
0
0
0
0
0
252
252
252
252
252
252
0
0
0
0
0
0
0
0
0
0
0
0
0
0
0
0
0
0
252
252
252
252
252
252
0
0
0
0
0
0
0
0
0
0
0
0
0
0
0
0
0
0
252
252
252
252
252
252
0
0
0
0
0
0
0
0
0
0
0
0
0
0
0
0
0
0
252
252
252
252
252
252
0
0
0
0
0
0
0
0
0
0
0
0
0
0
0
0
0
0
0
0
0
0
0
0
0
0
0
0
0
0
252
252
252
252
252
252
0
0
0
0
0
0
0
0
0
0
0
0
0
0
0
0
0
0
0
0
0
0
0
0
0
0
0
0
0
0
0
0
0
0
0
0
252
252
252
252
252
252
0
0
0
0
0
0
252
252
252
252
252
252
0
0
0
0
0
0
0
0
0
0
0
0
0
0
0
0
0
0
0
0
0
0
0
0
0
0
0
0
0
0
0
0
0
0
0
0
252
252
252
252
252
252
0
0
0
0
0
0
0
0
0
0
0
0
0
0
0
0
0
0
0
0
0
0
0
0
0
0
0
0
0
0
252
252
252
252
252
252
252
252
252
252
252
252
252
252
252
252
252
252
252
252
252
252
252
252
252
252
252
252
252
252
0
0
0
0
0
0
0
0
0
0
0
0
0
0
0
0
0
0
252
252
252
252
252
252
252
252
252
252
252
252
252
252
252
252
252
252
252
252
252
252
252
252
0
0
0
0
0
0
0
0
0
0
0
0
0
0
0
0
0
0
0
0
0
0
0
0
252
252
252
252
252
252
0
0
0
0
0
0
0
0
0
0
0
0
0
0
0
0
0
0
0
0
0
0
0
0
0
0
0
0
0
0
0
0
0
0
0
0
0
0
0
0
0
0
252
252
252
252
252
252
0
0
0
0
0
0
0
0
0
0
0
0
0
0
0
0
0
0
252
252
252
252
252
252
0
0
0
0
0
0
0
0
0
0
0
0
0
0
0
0
0
0
252
252
252
252
252
252
252
252
252
252
252
252
252
252
252
252
252
252
0
0
0
0
0
0
0
0
0
0
0
0
0
0
0
0
0
0
0
0
0
0
0
0
0
0
0
0
0
0
252
252
252
252
252
252
252
252
252
252
252
252
252
252
252
252
252
252
252
252
252
252
252
252
0
0
0
0
0
0
0
0
0
0
0
0
0
0
0
0
0
0
0
0
0
0
0
0
252
252
252
252
252
252
0
0
0
0
0
0
0
0
0
0
0
0
252
252
252
252
252
252
252
252
252
252
252
252
0
0
0
0
0
0
0
0
0
0
0
0
0
0
0
0
0
0
252
252
252
252
252
252
252
252
252
252
252
252
252
252
252
252
252
252
252
252
252
252
252
252
252
252
252
252
252
252
0
0
0
0
0
0
0
0
0
0
0
0
0
0
0
0
0
0
0
0
0
0
0
0
0
0
0
0
0
0
252
252
252
252
252
252
0
0
0
0
0
0
0
0
0
0
0
0
0
0
0
0
0
0
0
0
0
0
0
0
0
0
0
0
0
0
0
0
0
0
0
0
0
0
0
0
0
0
0
0
0
0
0
0
0
0
0
0
0
0
252
252
252
252
252
252
0
0
0
0
0
0
0
0
0
0
0
0
0
0
0
0
0
0
252
252
252
252
252
252
252
252
252
252
252
252
0
0
0
0
0
0
0
0
0
0
0
0
0
0
0
0
0
0
0
0
0
0
0
0
0
0
0
0
0
0
0
0
0
0
0
0
252
252
252
252
252
252
0
0
0
0
0
0
0
0
0
0
0
0
0
0
0
0
0
0
0
0
0
0
0
0
0
0
0
0
0
0
0
0
0
0
0
0
0
0
0
0
0
0
252
252
252
252
252
252
0
0
0
0
0
0
0
0
0
0
0
0
0
0
0
0
0
0
252
252
252
252
252
252
0
0
0
0
0
0
0
0
0
0
0
0
0
0
0
0
0
0
252
252
252
252
252
252
0
0
0
0
0
0
252
252
252
252
252
252
0
0
0
0
0
0
252
252
252
252
252
252
0
0
0
0
0
0
0
0
0
0
0
0
0
0
0
0
0
0
252
252
252
252
252
252
0
0
0
0
0
0
0
0
0
0
0
0
0
0
0
0
0
0
252
252
252
252
252
252
0
0
0
0
0
0
0
0
0
0
0
0
0
0
0
0
0
0
252
252
252
252
252
252
252
252
252
252
252
252
252
252
252
252
252
252
252
252
252
252
252
252
0
0
0
0
0
0
0
0
0
0
0
0
0
0
0
0
0
0
0
0
0
0
0
0
252
252
252
252
252
252
0
0
0
0
0
0
0
0
0
0
0
0
0
0
0
0
0
0
252
252
252
252
252
252
0
0
0
0
0
0
0
0
0
0
0
0
0
0
0
0
0
0
252
252
252
252
252
252
252
252
252
252
252
252
252
252
252
252
252
252
252
252
252
252
252
252
0
0
0
0
0
0
0
0
0
0
0
0
0
0
0
0
0
0
0
0
0
0
0
0
0
0
0
0
0
0
252
252
252
252
252
252
252
252
252
252
252
252
252
252
252
252
252
252
0
0
0
0
0
0
0
0
0
0
0
0
0
0
0
0
0
0
0
0
0
0
0
0
0
0
0
0
0
0
0
0
0
0
0
0
252
252
252
252
252
252
0
0
0
0
0
0
0
0
0
0
0
0
0
0
0
0
0
0
0
0
0
0
0
0
0
0
0
0
0
0
252
252
252
252
252
252
0
0
0
0
0
0
0
0
0
0
0
0
0
0
0
0
0
0
252
252
252
252
252
252
0
0
0
0
0
0
0
0
0
0
0
0
0
0
0
0
0
0
252
252
252
252
252
252
0
0
0
0
0
0
0
0
0
0
0
0
0
0
0
0
0
0
252
252
252
252
252
252
0
0
0
0
0
0
0
0
0
0
0
0
0
0
0
0
0
0
252
252
252
252
252
252
0
0
0
0
0
0
0
0
0
0
0
0
0
0
0
0
0
0
252
252
252
252
252
252
0
0
0
0
0
0
0
0
0
0
0
0
0
0
0
0
0
0
0
0
0
0
0
0
0
0
0
0
0
0
252
252
252
252
252
252
0
0
0
0
0
0
0
0
0
0
0
0
0
0
0
0
0
0
0
0
0
0
0
0
0
0
0
0
0
0
0
0
0
0
0
0
252
252
252
252
252
252
0
0
0
0
0
0
252
252
252
252
252
252
0
0
0
0
0
0
0
0
0
0
0
0
0
0
0
0
0
0
0
0
0
0
0
0
0
0
0
0
0
0
0
0
0
0
0
0
252
252
252
252
252
252
0
0
0
0
0
0
0
0
0
0
0
0
0
0
0
0
0
0
0
0
0
0
0
0
0
0
0
0
0
0
252
252
252
252
252
252
0
0
0
0
0
0
0
0
0
0
0
0
0
0
0
0
0
0
252
252
252
252
252
252
0
0
0
0
0
0
0
0
0
0
0
0
0
0
0
0
0
0
252
252
252
252
252
252
0
0
0
0
0
0
0
0
0
0
0
0
0
0
0
0
0
0
252
252
252
252
252
252
0
0
0
0
0
0
0
0
0
0
0
0
0
0
0
0
0
0
252
252
252
252
252
252
0
0
0
0
0
0
0
0
0
0
0
0
0
0
0
0
0
0
0
0
0
0
0
0
0
0
0
0
0
0
0
0
0
0
0
0
0
0
0
0
0
0
252
252
252
252
252
252
0
0
0
0
0
0
0
0
0
0
0
0
0
0
0
0
0
0
252
252
252
252
252
252
0
0
0
0
0
0
0
0
0
0
0
0
0
0
0
0
0
0
252
252
252
252
252
252
0
0
0
0
0
0
0
0
0
0
0
0
0
0
0
0
0
0
0
0
0
0
0
0
0
0
0
0
0
0
0
0
0
0
0
0
0
0
0
0
0
0
252
252
252
252
252
252
0
0
0
0
0
0
0
0
0
0
0
0
0
0
0
0
0
0
0
0
0
0
0
0
0
0
0
0
0
0
0
0
0
0
0
0
0
0
0
0
0
0
252
252
252
252
252
252
0
0
0
0
0
0
0
0
0
0
0
0
0
0
0
0
0
0
252
252
252
252
252
252
0
0
0
0
0
0
0
0
0
0
0
0
0
0
0
0
0
0
252
252
252
252
252
252
0
0
0
0
0
0
0
0
0
0
0
0
0
0
0
0
0
0
252
252
252
252
252
252
0
0
0
0
0
0
0
0
0
0
0
0
0
0
0
0
0
0
0
0
0
0
0
0
0
0
0
0
0
0
252
252
252
252
252
252
0
0
0
0
0
0
0
0
0
0
0
0
0
0
0
0
0
0
0
0
0
0
0
0
0
0
0
0
0
0
0
0
0
0
0
0
0
0
0
0
0
0
0
0
0
0
0
0
0
0
0
0
0
0
252
252
252
252
252
252
0
0
0
0
0
0
0
0
0
0
0
0
0
0
0
0
0
0
252
252
252
252
252
252
0
0
0
0
0
0
252
252
252
252
252
252
0
0
0
0
0
0
0
0
0
0
0
0
0
0
0
0
0
0
0
0
0
0
0
0
0
0
0
0
0
0
252
252
252
252
252
252
0
0
0
0
0
0
0
0
0
0
0
0
0
0
0
0
0
0
0
0
0
0
0
0
0
0
0
0
0
0
0
0
0
0
0
0
0
0
0
0
0
0
252
252
252
252
252
252
0
0
0
0
0
0
0
0
0
0
0
0
0
0
0
0
0
0
252
252
252
252
252
252
0
0
0
0
0
0
0
0
0
0
0
0
0
0
0
0
0
0
252
252
252
252
252
252
0
0
0
0
0
0
0
0
0
0
0
0
252
252
252
252
252
252
252
252
252
252
252
252
0
0
0
0
0
0
0
0
0
0
0
0
0
0
0
0
0
0
252
252
252
252
252
252
0
0
0
0
0
0
0
0
0
0
0
0
0
0
0
0
0
0
252
252
252
252
252
252
0
0
0
0
0
0
0
0
0
0
0
0
0
0
0
0
0
0
252
252
252
252
252
252
0
0
0
0
0
0
0
0
0
0
0
0
0
0
0
0
0
0
0
0
0
0
0
0
0
0
0
0
0
0
0
0
0
0
0
0
0
0
0
0
0
0
252
252
252
252
252
252
0
0
0
0
0
0
0
0
0
0
0
0
0
0
0
0
0
0
252
252
252
252
252
252
0
0
0
0
0
0
0
0
0
0
0
0
0
0
0
0
0
0
252
252
252
252
252
252
0
0
0
0
0
0
252
252
252
252
252
252
0
0
0
0
0
0
0
0
0
0
0
0
0
0
0
0
0
0
0
0
0
0
0
0
0
0
0
0
0
0
0
0
0
0
0
0
0
0
0
0
0
0
0
0
0
0
0
0
0
0
0
0
0
0
252
252
252
252
252
252
0
0
0
0
0
0
0
0
0
0
0
0
0
0
0
0
0
0
0
0
0
0
0
0
0
0
0
0
0
0
252
252
252
252
252
252
0
0
0
0
0
0
0
0
0
0
0
0
0
0
0
0
0
0
0
0
0
0
0
0
0
0
0
0
0
0
252
252
252
252
252
252
0
0
0
0
0
0
0
0
0
0
0
0
0
0
0
0
0
0
252
252
252
252
252
252
0
0
0
0
0
0
0
0
0
0
0
0
0
0
0
0
0
0
252
252
252
252
252
252
0
0
0
0
0
0
0
0
0
0
0
0
0
0
0
0
0
0
252
252
252
252
252
252
0
0
0
0
0
0
0
0
0
0
0
0
0
0
0
0
0
0
252
252
252
252
252
252
0
0
0
0
0
0
252
252
252
252
252
252
0
0
0
0
0
0
252
252
252
252
252
252
0
0
0
0
0
0
0
0
0
0
0
0
0
0
0
0
0
0
0
0
0
0
0
0
252
252
252
252
252
252
0
0
0
0
0
0
252
252
252
252
252
252
0
0
0
0
0
0
0
0
0
0
0
0
0
0
0
0
0
0
0
0
0
0
0
0
0
0
0
0
0
0
0
0
0
0
0
0
252
252
252
252
252
252
0
0
0
0
0
0
0
0
0
0
0
0
0
0
0
0
0
0
0
0
0
0
0
0
0
0
0
0
0
0
0
0
0
0
0
0
252
252
252
252
252
252
0
0
0
0
0
0
0
0
0
0
0
0
0
0
0
0
0
0
0
0
0
0
0
0
0
0
0
0
0
0
0
0
0
0
0
0
252
252
252
252
252
252
0
0
0
0
0
0
0
0
0
0
0
0
0
0
0
0
0
0
252
252
252
252
252
252
0
0
0
0
0
0
0
0
0
0
0
0
0
0
0
0
0
0
252
252
252
252
252
252
0
0
0
0
0
0
0
0
0
0
0
0
0
0
0
0
0
0
252
252
252
252
252
252
0
0
0
0
0
0
0
0
0
0
0
0
0
0
0
0
0
0
252
252
252
252
252
252
0
0
0
0
0
0
0
0
0
0
0
0
0
0
0
0
0
0
0
0
0
0
0
0
0
0
0
0
0
0
0
0
0
0
0
0
0
0
0
0
0
0
252
252
252
252
252
252
0
0
0
0
0
0
0
0
0
0
0
0
0
0
0
0
0
0
252
252
252
252
252
252
0
0
0
0
0
0
0
0
0
0
0
0
0
0
0
0
0
0
252
252
252
252
252
252
0
0
0
0
0
0
0
0
0
0
0
0
0
0
0
0
0
0
0
0
0
0
0
0
0
0
0
0
0
0
0
0
0
0
0
0
0
0
0
0
0
0
252
252
252
252
252
252
0
0
0
0
0
0
0
0
0
0
0
0
0
0
0
0
0
0
0
0
0
0
0
0
0
0
0
0
0
0
0
0
0
0
0
0
0
0
0
0
0
0
252
252
252
252
252
252
0
0
0
0
0
0
0
0
0
0
0
0
0
0
0
0
0
0
252
252
252
252
252
252
0
0
0
0
0
0
0
0
0
0
0
0
0
0
0
0
0
0
252
252
252
252
252
252
0
0
0
0
0
0
0
0
0
0
0
0
0
0
0
0
0
0
252
252
252
252
252
252
0
0
0
0
0
0
0
0
0
0
0
0
0
0
0
0
0
0
0
0
0
0
0
0
0
0
0
0
0
0
252
252
252
252
252
252
0
0
0
0
0
0
0
0
0
0
0
0
0
0
0
0
0
0
0
0
0
0
0
0
0
0
0
0
0
0
0
0
0
0
0
0
0
0
0
0
0
0
0
0
0
0
0
0
0
0
0
0
0
0
252
252
252
252
252
252
0
0
0
0
0
0
0
0
0
0
0
0
0
0
0
0
0
0
252
252
252
252
252
252
0
0
0
0
0
0
252
252
252
252
252
252
0
0
0
0
0
0
0
0
0
0
0
0
0
0
0
0
0
0
0
0
0
0
0
0
0
0
0
0
0
0
252
252
252
252
252
252
0
0
0
0
0
0
0
0
0
0
0
0
0
0
0
0
0
0
0
0
0
0
0
0
0
0
0
0
0
0
0
0
0
0
0
0
0
0
0
0
0
0
252
252
252
252
252
252
0
0
0
0
0
0
0
0
0
0
0
0
0
0
0
0
0
0
252
252
252
252
252
252
0
0
0
0
0
0
0
0
0
0
0
0
0
0
0
0
0
0
252
252
252
252
252
252
0
0
0
0
0
0
0
0
0
0
0
0
252
252
252
252
252
252
252
252
252
252
252
252
0
0
0
0
0
0
0
0
0
0
0
0
0
0
0
0
0
0
252
252
252
252
252
252
0
0
0
0
0
0
0
0
0
0
0
0
0
0
0
0
0
0
252
252
252
252
252
252
0
0
0
0
0
0
0
0
0
0
0
0
0
0
0
0
0
0
252
252
252
252
252
252
0
0
0
0
0
0
0
0
0
0
0
0
0
0
0
0
0
0
0
0
0
0
0
0
0
0
0
0
0
0
0
0
0
0
0
0
0
0
0
0
0
0
252
252
252
252
252
252
0
0
0
0
0
0
0
0
0
0
0
0
0
0
0
0
0
0
252
252
252
252
252
252
0
0
0
0
0
0
0
0
0
0
0
0
0
0
0
0
0
0
252
252
252
252
252
252
0
0
0
0
0
0
252
252
252
252
252
252
0
0
0
0
0
0
0
0
0
0
0
0
0
0
0
0
0
0
0
0
0
0
0
0
0
0
0
0
0
0
0
0
0
0
0
0
0
0
0
0
0
0
0
0
0
0
0
0
0
0
0
0
0
0
252
252
252
252
252
252
0
0
0
0
0
0
0
0
0
0
0
0
0
0
0
0
0
0
0
0
0
0
0
0
0
0
0
0
0
0
252
252
252
252
252
252
0
0
0
0
0
0
0
0
0
0
0
0
0
0
0
0
0
0
0
0
0
0
0
0
0
0
0
0
0
0
252
252
252
252
252
252
0
0
0
0
0
0
0
0
0
0
0
0
0
0
0
0
0
0
252
252
252
252
252
252
0
0
0
0
0
0
0
0
0
0
0
0
0
0
0
0
0
0
252
252
252
252
252
252
0
0
0
0
0
0
0
0
0
0
0
0
0
0
0
0
0
0
252
252
252
252
252
252
0
0
0
0
0
0
0
0
0
0
0
0
0
0
0
0
0
0
252
252
252
252
252
252
0
0
0
0
0
0
252
252
252
252
252
252
0
0
0
0
0
0
252
252
252
252
252
252
0
0
0
0
0
0
0
0
0
0
0
0
0
0
0
0
0
0
0
0
0
0
0
0
252
252
252
252
252
252
0
0
0
0
0
0
252
252
252
252
252
252
0
0
0
0
0
0
0
0
0
0
0
0
0
0
0
0
0
0
0
0
0
0
0
0
0
0
0
0
0
0
0
0
0
0
0
0
252
252
252
252
252
252
0
0
0
0
0
0
0
0
0
0
0
0
0
0
0
0
0
0
0
0
0
0
0
0
0
0
0
0
0
0
0
0
0
0
0
0
252
252
252
252
252
252
0
0
0
0
0
0
0
0
0
0
0
0
0
0
0
0
0
0
0
0
0
0
0
0
0
0
0
0
0
0
0
0
0
0
0
0
252
252
252
252
252
252
0
0
0
0
0
0
0
0
0
0
0
0
0
0
0
0
0
0
252
252
252
252
252
252
0
0
0
0
0
0
0
0
0
0
0
0
0
0
0
0
0
0
252
252
252
252
252
252
0
0
0
0
0
0
0
0
0
0
0
0
0
0
0
0
0
0
252
252
252
252
252
252
0
0
0
0
0
0
0
0
0
0
0
0
0
0
0
0
0
0
252
252
252
252
252
252
0
0
0
0
0
0
0
0
0
0
0
0
0
0
0
0
0
0
252
252
252
252
252
252
0
0
0
0
0
0
0
0
0
0
0
0
0
0
0
0
0
0
252
252
252
252
252
252
0
0
0
0
0
0
0
0
0
0
0
0
0
0
0
0
0
0
252
252
252
252
252
252
0
0
0
0
0
0
0
0
0
0
0
0
0
0
0
0
0
0
252
252
252
252
252
252
0
0
0
0
0
0
0
0
0
0
0
0
0
0
0
0
0
0
0
0
0
0
0
0
0
0
0
0
0
0
0
0
0
0
0
0
0
0
0
0
0
0
252
252
252
252
252
252
0
0
0
0
0
0
0
0
0
0
0
0
0
0
0
0
0
0
0
0
0
0
0
0
0
0
0
0
0
0
0
0
0
0
0
0
0
0
0
0
0
0
252
252
252
252
252
252
0
0
0
0
0
0
0
0
0
0
0
0
0
0
0
0
0
0
252
252
252
252
252
252
0
0
0
0
0
0
0
0
0
0
0
0
0
0
0
0
0
0
252
252
252
252
252
252
0
0
0
0
0
0
0
0
0
0
0
0
0
0
0
0
0
0
252
252
252
252
252
252
0
0
0
0
0
0
0
0
0
0
0
0
0
0
0
0
0
0
0
0
0
0
0
0
0
0
0
0
0
0
252
252
252
252
252
252
0
0
0
0
0
0
0
0
0
0
0
0
0
0
0
0
0
0
0
0
0
0
0
0
0
0
0
0
0
0
252
252
252
252
252
252
0
0
0
0
0
0
0
0
0
0
0
0
0
0
0
0
0
0
252
252
252
252
252
252
0
0
0
0
0
0
0
0
0
0
0
0
0
0
0
0
0
0
252
252
252
252
252
252
0
0
0
0
0
0
0
0
0
0
0
0
252
252
252
252
252
252
0
0
0
0
0
0
0
0
0
0
0
0
0
0
0
0
0
0
0
0
0
0
0
0
252
252
252
252
252
252
0
0
0
0
0
0
0
0
0
0
0
0
0
0
0
0
0
0
0
0
0
0
0
0
0
0
0
0
0
0
0
0
0
0
0
0
0
0
0
0
0
0
252
252
252
252
252
252
0
0
0
0
0
0
0
0
0
0
0
0
0
0
0
0
0
0
252
252
252
252
252
252
0
0
0
0
0
0
0
0
0
0
0
0
0
0
0
0
0
0
252
252
252
252
252
252
0
0
0
0
0
0
0
0
0
0
0
0
0
0
0
0
0
0
252
252
252
252
252
252
0
0
0
0
0
0
0
0
0
0
0
0
0
0
0
0
0
0
252
252
252
252
252
252
0
0
0
0
0
0
0
0
0
0
0
0
0
0
0
0
0
0
252
252
252
252
252
252
0
0
0
0
0
0
0
0
0
0
0
0
0
0
0
0
0
0
252
252
252
252
252
252
0
0
0
0
0
0
0
0
0
0
0
0
0
0
0
0
0
0
0
0
0
0
0
0
0
0
0
0
0
0
0
0
0
0
0
0
0
0
0
0
0
0
252
252
252
252
252
252
0
0
0
0
0
0
252
252
252
252
252
252
0
0
0
0
0
0
252
252
252
252
252
252
0
0
0
0
0
0
0
0
0
0
0
0
0
0
0
0
0
0
252
252
252
252
252
252
0
0
0
0
0
0
0
0
0
0
0
0
252
252
252
252
252
252
0
0
0
0
0
0
0
0
0
0
0
0
0
0
0
0
0
0
0
0
0
0
0
0
252
252
252
252
252
252
0
0
0
0
0
0
0
0
0
0
0
0
0
0
0
0
0
0
252
252
252
252
252
252
0
0
0
0
0
0
0
0
0
0
0
0
0
0
0
0
0
0
0
0
0
0
0
0
0
0
0
0
0
0
252
252
252
252
252
252
0
0
0
0
0
0
0
0
0
0
0
0
0
0
0
0
0
0
0
0
0
0
0
0
0
0
0
0
0
0
252
252
252
252
252
252
0
0
0
0
0
0
0
0
0
0
0
0
0
0
0
0
0
0
252
252
252
252
252
252
0
0
0
0
0
0
0
0
0
0
0
0
0
0
0
0
0
0
0
0
0
0
0
0
252
252
252
252
252
252
0
0
0
0
0
0
252
252
252
252
252
252
0
0
0
0
0
0
0
0
0
0
0
0
0
0
0
0
0
0
0
0
0
0
0
0
252
252
252
252
252
252
252
252
252
252
252
252
0
0
0
0
0
0
252
252
252
252
252
252
252
252
252
252
252
252
0
0
0
0
0
0
0
0
0
0
0
0
0
0
0
0
0
0
252
252
252
252
252
252
0
0
0
0
0
0
0
0
0
0
0
0
0
0
0
0
0
0
252
252
252
252
252
252
0
0
0
0
0
0
0
0
0
0
0
0
0
0
0
0
0
0
0
0
0
0
0
0
0
0
0
0
0
0
252
252
252
252
252
252
0
0
0
0
0
0
0
0
0
0
0
0
0
0
0
0
0
0
0
0
0
0
0
0
0
0
0
0
0
0
252
252
252
252
252
252
0
0
0
0
0
0
0
0
0
0
0
0
0
0
0
0
0
0
0
0
0
0
0
0
0
0
0
0
0
0
0
0
0
0
0
0
0
0
0
0
0
0
252
252
252
252
252
252
0
0
0
0
0
0
0
0
0
0
0
0
0
0
0
0
0
0
252
252
252
252
252
252
0
0
0
0
0
0
0
0
0
0
0
0
0
0
0
0
0
0
252
252
252
252
252
252
0
0
0
0
0
0
0
0
0
0
0
0
0
0
0
0
0
0
252
252
252
252
252
252
0
0
0
0
0
0
0
0
0
0
0
0
0
0
0
0
0
0
252
252
252
252
252
252
0
0
0
0
0
0
0
0
0
0
0
0
0
0
0
0
0
0
252
252
252
252
252
252
0
0
0
0
0
0
0
0
0
0
0
0
0
0
0
0
0
0
252
252
252
252
252
252
0
0
0
0
0
0
0
0
0
0
0
0
0
0
0
0
0
0
252
252
252
252
252
252
0
0
0
0
0
0
0
0
0
0
0
0
0
0
0
0
0
0
252
252
252
252
252
252
0
0
0
0
0
0
0
0
0
0
0
0
0
0
0
0
0
0
0
0
0
0
0
0
0
0
0
0
0
0
0
0
0
0
0
0
0
0
0
0
0
0
252
252
252
252
252
252
0
0
0
0
0
0
0
0
0
0
0
0
0
0
0
0
0
0
0
0
0
0
0
0
0
0
0
0
0
0
0
0
0
0
0
0
0
0
0
0
0
0
252
252
252
252
252
252
0
0
0
0
0
0
0
0
0
0
0
0
0
0
0
0
0
0
252
252
252
252
252
252
0
0
0
0
0
0
0
0
0
0
0
0
0
0
0
0
0
0
252
252
252
252
252
252
0
0
0
0
0
0
0
0
0
0
0
0
0
0
0
0
0
0
252
252
252
252
252
252
0
0
0
0
0
0
0
0
0
0
0
0
0
0
0
0
0
0
0
0
0
0
0
0
0
0
0
0
0
0
252
252
252
252
252
252
0
0
0
0
0
0
0
0
0
0
0
0
0
0
0
0
0
0
0
0
0
0
0
0
0
0
0
0
0
0
252
252
252
252
252
252
0
0
0
0
0
0
0
0
0
0
0
0
0
0
0
0
0
0
252
252
252
252
252
252
0
0
0
0
0
0
0
0
0
0
0
0
0
0
0
0
0
0
252
252
252
252
252
252
0
0
0
0
0
0
0
0
0
0
0
0
252
252
252
252
252
252
0
0
0
0
0
0
0
0
0
0
0
0
0
0
0
0
0
0
0
0
0
0
0
0
252
252
252
252
252
252
0
0
0
0
0
0
0
0
0
0
0
0
0
0
0
0
0
0
0
0
0
0
0
0
0
0
0
0
0
0
0
0
0
0
0
0
0
0
0
0
0
0
252
252
252
252
252
252
0
0
0
0
0
0
0
0
0
0
0
0
0
0
0
0
0
0
252
252
252
252
252
252
0
0
0
0
0
0
0
0
0
0
0
0
0
0
0
0
0
0
252
252
252
252
252
252
0
0
0
0
0
0
0
0
0
0
0
0
0
0
0
0
0
0
252
252
252
252
252
252
0
0
0
0
0
0
0
0
0
0
0
0
0
0
0
0
0
0
252
252
252
252
252
252
0
0
0
0
0
0
0
0
0
0
0
0
0
0
0
0
0
0
252
252
252
252
252
252
0
0
0
0
0
0
0
0
0
0
0
0
0
0
0
0
0
0
252
252
252
252
252
252
0
0
0
0
0
0
0
0
0
0
0
0
0
0
0
0
0
0
0
0
0
0
0
0
0
0
0
0
0
0
0
0
0
0
0
0
0
0
0
0
0
0
252
252
252
252
252
252
0
0
0
0
0
0
252
252
252
252
252
252
0
0
0
0
0
0
252
252
252
252
252
252
0
0
0
0
0
0
0
0
0
0
0
0
0
0
0
0
0
0
252
252
252
252
252
252
0
0
0
0
0
0
0
0
0
0
0
0
252
252
252
252
252
252
0
0
0
0
0
0
0
0
0
0
0
0
0
0
0
0
0
0
0
0
0
0
0
0
252
252
252
252
252
252
0
0
0
0
0
0
0
0
0
0
0
0
0
0
0
0
0
0
252
252
252
252
252
252
0
0
0
0
0
0
0
0
0
0
0
0
0
0
0
0
0
0
0
0
0
0
0
0
0
0
0
0
0
0
252
252
252
252
252
252
0
0
0
0
0
0
0
0
0
0
0
0
0
0
0
0
0
0
0
0
0
0
0
0
0
0
0
0
0
0
252
252
252
252
252
252
0
0
0
0
0
0
0
0
0
0
0
0
0
0
0
0
0
0
252
252
252
252
252
252
0
0
0
0
0
0
0
0
0
0
0
0
0
0
0
0
0
0
0
0
0
0
0
0
252
252
252
252
252
252
0
0
0
0
0
0
252
252
252
252
252
252
0
0
0
0
0
0
0
0
0
0
0
0
0
0
0
0
0
0
0
0
0
0
0
0
252
252
252
252
252
252
252
252
252
252
252
252
0
0
0
0
0
0
252
252
252
252
252
252
252
252
252
252
252
252
0
0
0
0
0
0
0
0
0
0
0
0
0
0
0
0
0
0
252
252
252
252
252
252
0
0
0
0
0
0
0
0
0
0
0
0
0
0
0
0
0
0
252
252
252
252
252
252
0
0
0
0
0
0
0
0
0
0
0
0
0
0
0
0
0
0
0
0
0
0
0
0
0
0
0
0
0
0
252
252
252
252
252
252
0
0
0
0
0
0
0
0
0
0
0
0
0
0
0
0
0
0
0
0
0
0
0
0
0
0
0
0
0
0
252
252
252
252
252
252
0
0
0
0
0
0
0
0
0
0
0
0
0
0
0
0
0
0
0
0
0
0
0
0
0
0
0
0
0
0
0
0
0
0
0
0
0
0
0
0
0
0
252
252
252
252
252
252
0
0
0
0
0
0
0
0
0
0
0
0
0
0
0
0
0
0
252
252
252
252
252
252
0
0
0
0
0
0
0
0
0
0
0
0
0
0
0
0
0
0
252
252
252
252
252
252
252
252
252
252
252
252
252
252
252
252
252
252
252
252
252
252
252
252
0
0
0
0
0
0
0
0
0
0
0
0
0
0
0
0
0
0
0
0
0
0
0
0
0
0
0
0
0
0
252
252
252
252
252
252
252
252
252
252
252
252
252
252
252
252
252
252
0
0
0
0
0
0
0
0
0
0
0
0
0
0
0
0
0
0
0
0
0
0
0
0
252
252
252
252
252
252
252
252
252
252
252
252
252
252
252
252
252
252
252
252
252
252
252
252
0
0
0
0
0
0
0
0
0
0
0
0
0
0
0
0
0
0
0
0
0
0
0
0
252
252
252
252
252
252
252
252
252
252
252
252
252
252
252
252
252
252
252
252
252
252
252
252
252
252
252
252
252
252
0
0
0
0
0
0
0
0
0
0
0
0
0
0
0
0
0
0
252
252
252
252
252
252
0
0
0
0
0
0
0
0
0
0
0
0
0
0
0
0
0
0
0
0
0
0
0
0
0
0
0
0
0
0
0
0
0
0
0
0
0
0
0
0
0
0
0
0
0
0
0
0
252
252
252
252
252
252
252
252
252
252
252
252
252
252
252
252
252
252
0
0
0
0
0
0
0
0
0
0
0
0
0
0
0
0
0
0
0
0
0
0
0
0
252
252
252
252
252
252
0
0
0
0
0
0
0
0
0
0
0
0
0
0
0
0
0
0
252
252
252
252
252
252
0
0
0
0
0
0
0
0
0
0
0
0
0
0
0
0
0
0
0
0
0
0
0
0
252
252
252
252
252
252
252
252
252
252
252
252
252
252
252
252
252
252
0
0
0
0
0
0
0
0
0
0
0
0
0
0
0
0
0
0
0
0
0
0
0
0
0
0
0
0
0
0
252
252
252
252
252
252
252
252
252
252
252
252
252
252
252
252
252
252
0
0
0
0
0
0
0
0
0
0
0
0
0
0
0
0
0
0
0
0
0
0
0
0
252
252
252
252
252
252
0
0
0
0
0
0
0
0
0
0
0
0
0
0
0
0
0
0
252
252
252
252
252
252
0
0
0
0
0
0
0
0
0
0
0
0
0
0
0
0
0
0
252
252
252
252
252
252
252
252
252
252
252
252
252
252
252
252
252
252
252
252
252
252
252
252
252
252
252
252
252
252
0
0
0
0
0
0
0
0
0
0
0
0
0
0
0
0
0
0
252
252
252
252
252
252
0
0
0
0
0
0
0
0
0
0
0
0
0
0
0
0
0
0
252
252
252
252
252
252
0
0
0
0
0
0
0
0
0
0
0
0
0
0
0
0
0
0
252
252
252
252
252
252
0
0
0
0
0
0
0
0
0
0
0
0
0
0
0
0
0
0
252
252
252
252
252
252
0
0
0
0
0
0
0
0
0
0
0
0
0
0
0
0
0
0
0
0
0
0
0
0
252
252
252
252
252
252
252
252
252
252
252
252
252
252
252
252
252
252
0
0
0
0
0
0
0
0
0
0
0
0
0
0
0
0
0
0
0
0
0
0
0
0
252
252
252
252
252
252
0
0
0
0
0
0
0
0
0
0
0
0
0
0
0
0
0
0
0
0
0
0
0
0
0
0
0
0
0
0
0
0
0
0
0
0
0
0
0
0
0
0
0
0
0
0
0
0
252
252
252
252
252
252
252
252
252
252
252
252
252
252
252
252
252
252
0
0
0
0
0
0
0
0
0
0
0
0
0
0
0
0
0
0
0
0
0
0
0
0
252
252
252
252
252
252
0
0
0
0
0
0
0
0
0
0
0
0
0
0
0
0
0
0
252
252
252
252
252
252
0
0
0
0
0
0
0
0
0
0
0
0
0
0
0
0
0
0
0
0
0
0
0
0
252
252
252
252
252
252
252
252
252
252
252
252
252
252
252
252
252
252
0
0
0
0
0
0
0
0
0
0
0
0
0
0
0
0
0
0
0
0
0
0
0
0
0
0
0
0
0
0
0
0
0
0
0
0
252
252
252
252
252
252
0
0
0
0
0
0
0
0
0
0
0
0
0
0
0
0
0
0
0
0
0
0
0
0
0
0
0
0
0
0
0
0
0
0
0
0
252
252
252
252
252
252
252
252
252
252
252
252
252
252
252
252
252
252
0
0
0
0
0
0
0
0
0
0
0
0
0
0
0
0
0
0
0
0
0
0
0
0
0
0
0
0
0
0
0
0
0
0
0
0
252
252
252
252
252
252
0
0
0
0
0
0
0
0
0
0
0
0
0
0
0
0
0
0
0
0
0
0
0
0
0
0
0
0
0
0
252
252
252
252
252
252
0
0
0
0
0
0
0
0
0
0
0
0
0
0
0
0
0
0
252
252
252
252
252
252
0
0
0
0
0
0
0
0
0
0
0
0
0
0
0
0
0
0
252
252
252
252
252
252
0
0
0
0
0
0
0
0
0
0
0
0
0
0
0
0
0
0
252
252
252
252
252
252
0
0
0
0
0
0
0
0
0
0
0
0
0
0
0
0
0
0
0
0
0
0
0
0
0
0
0
0
0
0
252
252
252
252
252
252
0
0
0
0
0
0
0
0
0
0
0
0
0
0
0
0
0
0
0
0
0
0
0
0
0
0
0
0
0
0
252
252
252
252
252
252
252
252
252
252
252
252
252
252
252
252
252
252
252
252
252
252
252
252
252
252
252
252
252
252
0
0
0
0
0
0
0
0
0
0
0
0
0
0
0
0
0
0
252
252
252
252
252
252
0
0
0
0
0
0
0
0
0
0
0
0
0
0
0
0
0
0
252
252
252
252
252
252
0
0
0
0
0
0
0
0
0
0
0
0
0
0
0
0
0
0
252
252
252
252
252
252
252
252
252
252
252
252
252
252
252
252
252
252
252
252
252
252
252
252
0
0
0
0
0
0
0
0
0
0
0
0
0
0
0
0
0
0
0
0
0
0
0
0
0
0
0
0
0
0
252
252
252
252
252
252
252
252
252
252
252
252
252
252
252
252
252
252
0
0
0
0
0
0
0
0
0
0
0
0
0
0
0
0
0
0
0
0
0
0
0
0
252
252
252
252
252
252
252
252
252
252
252
252
252
252
252
252
252
252
252
252
252
252
252
252
0
0
0
0
0
0
0
0
0
0
0
0
0
0
0
0
0
0
0
0
0
0
0
0
252
252
252
252
252
252
252
252
252
252
252
252
252
252
252
252
252
252
252
252
252
252
252
252
252
252
252
252
252
252
0
0
0
0
0
0
0
0
0
0
0
0
0
0
0
0
0
0
252
252
252
252
252
252
0
0
0
0
0
0
0
0
0
0
0
0
0
0
0
0
0
0
0
0
0
0
0
0
0
0
0
0
0
0
0
0
0
0
0
0
0
0
0
0
0
0
0
0
0
0
0
0
252
252
252
252
252
252
252
252
252
252
252
252
252
252
252
252
252
252
0
0
0
0
0
0
0
0
0
0
0
0
0
0
0
0
0
0
0
0
0
0
0
0
252
252
252
252
252
252
0
0
0
0
0
0
0
0
0
0
0
0
0
0
0
0
0
0
252
252
252
252
252
252
0
0
0
0
0
0
0
0
0
0
0
0
0
0
0
0
0
0
0
0
0
0
0
0
252
252
252
252
252
252
252
252
252
252
252
252
252
252
252
252
252
252
0
0
0
0
0
0
0
0
0
0
0
0
0
0
0
0
0
0
0
0
0
0
0
0
0
0
0
0
0
0
252
252
252
252
252
252
252
252
252
252
252
252
252
252
252
252
252
252
0
0
0
0
0
0
0
0
0
0
0
0
0
0
0
0
0
0
0
0
0
0
0
0
252
252
252
252
252
252
0
0
0
0
0
0
0
0
0
0
0
0
0
0
0
0
0
0
252
252
252
252
252
252
0
0
0
0
0
0
0
0
0
0
0
0
0
0
0
0
0
0
252
252
252
252
252
252
252
252
252
252
252
252
252
252
252
252
252
252
252
252
252
252
252
252
252
252
252
252
252
252
0
0
0
0
0
0
0
0
0
0
0
0
0
0
0
0
0
0
252
252
252
252
252
252
0
0
0
0
0
0
0
0
0
0
0
0
0
0
0
0
0
0
252
252
252
252
252
252
0
0
0
0
0
0
0
0
0
0
0
0
0
0
0
0
0
0
252
252
252
252
252
252
0
0
0
0
0
0
0
0
0
0
0
0
0
0
0
0
0
0
252
252
252
252
252
252
0
0
0
0
0
0
0
0
0
0
0
0
0
0
0
0
0
0
0
0
0
0
0
0
252
252
252
252
252
252
252
252
252
252
252
252
252
252
252
252
252
252
0
0
0
0
0
0
0
0
0
0
0
0
0
0
0
0
0
0
0
0
0
0
0
0
252
252
252
252
252
252
0
0
0
0
0
0
0
0
0
0
0
0
0
0
0
0
0
0
0
0
0
0
0
0
0
0
0
0
0
0
0
0
0
0
0
0
0
0
0
0
0
0
0
0
0
0
0
0
252
252
252
252
252
252
252
252
252
252
252
252
252
252
252
252
252
252
0
0
0
0
0
0
0
0
0
0
0
0
0
0
0
0
0
0
0
0
0
0
0
0
252
252
252
252
252
252
0
0
0
0
0
0
0
0
0
0
0
0
0
0
0
0
0
0
252
252
252
252
252
252
0
0
0
0
0
0
0
0
0
0
0
0
0
0
0
0
0
0
0
0
0
0
0
0
252
252
252
252
252
252
252
252
252
252
252
252
252
252
252
252
252
252
0
0
0
0
0
0
0
0
0
0
0
0
0
0
0
0
0
0
0
0
0
0
0
0
0
0
0
0
0
0
0
0
0
0
0
0
252
252
252
252
252
252
0
0
0
0
0
0
0
0
0
0
0
0
0
0
0
0
0
0
0
0
0
0
0
0
0
0
0
0
0
0
0
0
0
0
0
0
252
252
252
252
252
252
252
252
252
252
252
252
252
252
252
252
252
252
0
0
0
0
0
0
0
0
0
0
0
0
0
0
0
0
0
0
0
0
0
0
0
0
0
0
0
0
0
0
0
0
0
0
0
0
252
252
252
252
252
252
0
0
0
0
0
0
0
0
0
0
0
0
0
0
0
0
0
0
0
0
0
0
0
0
0
0
0
0
0
0
252
252
252
252
252
252
0
0
0
0
0
0
0
0
0
0
0
0
0
0
0
0
0
0
252
252
252
252
252
252
0
0
0
0
0
0
0
0
0
0
0
0
0
0
0
0
0
0
252
252
252
252
252
252
0
0
0
0
0
0
0
0
0
0
0
0
0
0
0
0
0
0
252
252
252
252
252
252
0
0
0
0
0
0
0
0
0
0
0
0
0
0
0
0
0
0
0
0
0
0
0
0
0
0
0
0
0
0
252
252
252
252
252
252
0
0
0
0
0
0
0
0
0
0
0
0
0
0
0
0
0
0
0
0
0
0
0
0
0
0
0
0
0
0
252
252
252
252
252
252
252
252
252
252
252
252
252
252
252
252
252
252
252
252
252
252
252
252
252
252
252
252
252
252
0
0
0
0
0
0
0
0
0
0
0
0
0
0
0
0
0
0
0
0
0
0
0
0
0
0
0
0
0
0
0
0
0
0
0
0
0
0
0
0
0
0
0
0
0
0
0
0
0
0
0
0
0
0
0
0
0
0
0
0
0
0
0
0
0
0
0
0
0
0
0
0
0
0
0
0
0
0
0
0
0
0
0
0
0
0
0
0
0
0
0
0
0
0
0
0
0
0
0
0
0
0
0
0
0
0
0
0
0
0
0
0
0
0
0
0
0
0
0
0
0
0
0
0
0
0
0
0
0
0
0
0
0
0
0
0
0
0
0
0
0
0
0
0
0
0
0
0
0
0
0
0
0
0
0
0
0
0
0
0
0
0
0
0
0
0
0
0
0
0
0
0
0
0
0
0
0
0
0
0
0
0
0
0
0
0
0
0
0
0
0
0
0
0
0
0
0
0
0
0
0
0
0
0
0
0
0
0
0
0
0
0
0
0
0
0
0
0
0
0
0
0
0
0
0
0
0
0
0
0
0
0
0
0
0
0
0
0
0
0
0
0
0
0
0
0
0
0
0
0
0
0
0
0
0
0
0
0
0
0
0
0
0
0
0
0
0
0
0
0
0
0
0
0
0
0
0
0
0
0
0
0
0
0
0
0
0
0
0
0
0
0
0
0
0
0
0
0
0
0
0
0
0
0
0
0
0
0
0
0
0
0
0
0
0
0
0
0
0
0
0
0
0
0
0
0
0
0
0
0
0
0
0
0
0
0
0
0
0
0
0
0
0
0
0
0
0
0
0
0
0
0
0
0
0
0
0
0
0
0
0
0
0
0
0
0
0
0
0
0
0
0
0
0
0
0
0
0
0
0
0
0
0
0
0
0
0
0
0
0
0
0
0
0
0
0
0
0
0
0
0
0
0
0
0
0
0
0
0
0
0
0
0
0
0
0
0
0
0
0
0
0
0
0
0
0
0
0
0
0
0
0
0
0
0
0
0
0
0
0
0
0
0
0
0
0
0
0
0
0
0
0
0
0
0
0
0
0
0
0
0
0
0
0
0
0
0
0
0
0
0
0
0
0
0
0
0
0
0
0
0
0
0
0
0
0
0
0
0
0
0
0
0
0
0
0
0
0
0
0
0
0
0
0
0
0
0
0
0
0
0
0
0
0
0
0
0
0
0
0
0
0
0
0
0
0
0
0
0
0
0
0
0
0
0
0
0
0
0
0
0
0
0
0
0
0
0
0
0
0
0
0
0
0
0
0
0
0
0
0
0
0
0
0
0
0
0
0
0
0
0
0
0
0
0
0
0
0
0
0
0
0
0
0
0
0
0
0
0
0
0
0
0
0
0
0
0
0
0
0
0
0
0
0
0
0
0
0
0
0
0
0
0
0
0
0
0
0
0
0
0
0
0
0
0
0
0
0
0
0
0
0
0
0
0
0
0
0
0
0
0
0
0
0
0
0
0
0
0
0
0
0
0
0
0
0
0
0
0
0
0
0
0
0
0
0
0
0
0
0
0
0
0
0
0
0
0
0
0
0
0
0
0
0
0
0
0
0
0
0
0
0
0
0
0
0
0
0
0
0
0
0
0
0
0
0
0
0
0
0
0
0
0
0
0
0
0
0
0
0
0
0
0
0
0
0
0
0
0
0
0
0
0
0
0
0
0
0
0
0
0
0
0
0
0
0
0
0
0
0
0
0
0
0
0
0
0
0
0
0
0
0
0
0
0
0
0
0
0
0
0
0
0
0
0
0
0
0
0
0
0
0
0
0
0
0
0
0
0
0
0
0
0
0
0
0
0
0
0
0
0
0
0
0
0
0
0
0
0
0
252
252
252
252
252
252
0
0
0
0
0
0
0
0
0
0
0
0
0
0
0
0
0
0
0
0
0
0
0
0
0
0
0
0
0
0
0
0
0
0
0
0
0
0
0
0
0
0
0
0
0
0
0
0
0
0
0
0
0
0
0
0
0
0
0
0
0
0
0
0
0
0
0
0
0
0
0
0
0
0
0
0
0
0
0
0
0
0
0
0
0
0
0
0
0
0
0
0
0
0
0
0
0
0
0
0
0
0
0
0
0
0
0
0
0
0
0
0
0
0
0
0
0
0
0
0
0
0
0
0
0
0
0
0
0
0
0
0
0
0
0
0
0
0
0
0
0
0
0
0
0
0
0
0
0
0
0
0
0
0
0
0
0
0
0
0
0
0
0
0
0
0
0
0
0
0
0
0
0
0
0
0
0
0
0
0
0
0
0
0
0
0
0
0
0
0
0
0
0
0
0
0
0
0
0
0
0
0
0
0
0
0
0
0
0
0
0
0
0
0
0
0
0
0
0
0
0
0
0
0
0
0
0
0
0
0
0
0
0
0
0
0
0
0
0
0
0
0
0
0
0
0
0
0
0
0
0
0
0
0
0
0
0
0
0
0
0
0
0
0
0
0
0
0
0
0
0
0
0
0
0
0
0
0
0
0
0
0
0
0
0
0
0
0
0
0
0
0
0
0
0
0
0
0
0
0
0
0
0
0
0
0
0
0
0
0
0
0
0
0
0
0
0
0
0
0
0
0
0
0
0
0
0
0
0
0
0
0
0
0
0
0
0
0
0
0
0
0
0
0
0
0
0
0
0
0
0
0
0
0
0
0
0
0
0
0
0
0
0
0
0
0
0
0
0
0
0
0
0
0
0
0
0
0
0
0
0
0
0
0
0
0
0
0
0
0
0
0
0
0
0
0
0
0
0
0
0
0
0
0
0
0
0
0
0
0
0
0
0
0
0
0
0
0
0
0
0
0
0
0
0
0
0
0
0
0
0
0
0
0
0
0
0
0
0
0
0
