<?xml version="1.0" encoding="UTF-8" standalone="no"?>
<svg
   xmlns:dc="http://purl.org/dc/elements/1.1/"
   xmlns:cc="http://creativecommons.org/ns#"
   xmlns:rdf="http://www.w3.org/1999/02/22-rdf-syntax-ns#"
   xmlns:svg="http://www.w3.org/2000/svg"
   xmlns="http://www.w3.org/2000/svg"
   xmlns:sodipodi="http://sodipodi.sourceforge.net/DTD/sodipodi-0.dtd"
   xmlns:inkscape="http://www.inkscape.org/namespaces/inkscape"
   sodipodi:docname="inspect.svg"
   inkscape:version="1.0 (4035a4fb49, 2020-05-01)"
   id="svg8"
   version="1.1"
   viewBox="0 0 75 75"
   height="75mm"
   width="75mm">
  <defs
     id="defs2" />
  <sodipodi:namedview
     inkscape:window-maximized="1"
     inkscape:window-y="-8"
     inkscape:window-x="-8"
     inkscape:window-height="987"
     inkscape:window-width="1680"
     showgrid="false"
     inkscape:document-rotation="0"
     inkscape:current-layer="layer1"
     inkscape:document-units="mm"
     inkscape:cy="77.029943"
     inkscape:cx="191.64544"
     inkscape:zoom="1.4"
     inkscape:pageshadow="2"
     inkscape:pageopacity="0.0"
     borderopacity="1.0"
     bordercolor="#666666"
     pagecolor="#ffffff"
     id="base" />
  <metadata
     id="metadata5">
    <rdf:RDF>
      <cc:Work
         rdf:about="">
        <dc:format>image/svg+xml</dc:format>
        <dc:type
           rdf:resource="http://purl.org/dc/dcmitype/StillImage" />
        <dc:title></dc:title>
      </cc:Work>
    </rdf:RDF>
  </metadata>
  <g
     id="layer1"
     inkscape:groupmode="layer"
     inkscape:label="Layer 1">
    <path
       id="rect869-3"
       style="fill:#ffffff;stroke:#000000;stroke-width:1.2;stroke-linecap:round;stroke-linejoin:round"
       d="m 10.471741,20.214 18.446765,0.56283 20.047353,15.292635 0.151038,27.186145 H 10.471741 Z"
       sodipodi:nodetypes="cccccc" />
    <path
       id="path871-0"
       style="fill:#ffffff;stroke:#000000;stroke-width:1.2;stroke-linecap:round;stroke-linejoin:round"
       inkscape:transform-center-x="-2.799095"
       inkscape:transform-center-y="-0.9366852"
       d="M 28.795019,36.49725 28.918497,20.77683 48.96585,36.069465 Z"
       sodipodi:nodetypes="cccc" />
    <path
       d="M 35.395629,12.516897 A 15.686011,15.686011 0 0 0 19.709765,28.202761 15.686011,15.686011 0 0 0 35.395629,43.889143 15.686011,15.686011 0 0 0 46.12624,39.644441 l 2.327507,2.327505 -1.102259,1.102259 L 64.59023,60.312944 70.068965,54.83421 52.830223,37.595471 51.660786,38.764389 48.965859,36.069465 A 15.686011,15.686011 0 0 0 51.081494,28.202761 15.686011,15.686011 0 0 0 35.395629,12.516897 Z m -0.04496,4.157886 a 11.528275,11.528275 0 0 1 0.04496,0 A 11.528275,11.528275 0 0 1 46.923606,28.202761 11.528275,11.528275 0 0 1 35.395629,39.731256 11.528275,11.528275 0 0 1 23.867134,28.202761 11.528275,11.528275 0 0 1 35.350671,16.674783 Z"
       style="fill:#ffffff;stroke:#000000;stroke-width:1.2;stroke-linecap:round;stroke-linejoin:round"
       id="path1495" />
  </g>
</svg>
