<?xml version="1.0" encoding="UTF-8" standalone="no"?>
<svg
   xmlns:dc="http://purl.org/dc/elements/1.1/"
   xmlns:cc="http://creativecommons.org/ns#"
   xmlns:rdf="http://www.w3.org/1999/02/22-rdf-syntax-ns#"
   xmlns:svg="http://www.w3.org/2000/svg"
   xmlns="http://www.w3.org/2000/svg"
   xmlns:sodipodi="http://sodipodi.sourceforge.net/DTD/sodipodi-0.dtd"
   xmlns:inkscape="http://www.inkscape.org/namespaces/inkscape"
   width="37mm"
   height="37mm"
   viewBox="0 0 37 37"
   version="1.1"
   id="svg8"
   inkscape:version="1.0 (4035a4fb49, 2020-05-01)"
   sodipodi:docname="letters.svg">
  <defs
     id="defs2" />
  <sodipodi:namedview
     id="base"
     pagecolor="#ffffff"
     bordercolor="#666666"
     borderopacity="1.0"
     inkscape:pageopacity="0.0"
     inkscape:pageshadow="2"
     inkscape:zoom="2.8"
     inkscape:cx="94.928887"
     inkscape:cy="98.791609"
     inkscape:document-units="mm"
     inkscape:current-layer="layer1"
     inkscape:document-rotation="0"
     showgrid="false"
     inkscape:window-width="1680"
     inkscape:window-height="987"
     inkscape:window-x="-8"
     inkscape:window-y="-8"
     inkscape:window-maximized="1" />
  <metadata
     id="metadata5">
    <rdf:RDF>
      <cc:Work
         rdf:about="">
        <dc:format>image/svg+xml</dc:format>
        <dc:type
           rdf:resource="http://purl.org/dc/dcmitype/StillImage" />
        <dc:title></dc:title>
      </cc:Work>
    </rdf:RDF>
  </metadata>
  <g
     inkscape:label="Layer 1"
     inkscape:groupmode="layer"
     id="layer1">
    <path
       id="path845"
       d="m 18.175002,30.667314 c 0,-0.112813 0.135806,-0.686428 0.301809,-1.274686 l 0.30181,-1.069556 -0.677105,-0.695692 c -0.372408,-0.38263 -0.67978,-0.770594 -0.683051,-0.862138 -0.01549,-0.433427 0.494972,-0.352918 0.918481,0.144866 0.585098,0.687702 0.655337,0.687616 0.97844,-0.0013 0.155745,-0.332028 0.316065,-0.477664 0.398723,-0.362204 0.190254,0.265843 -1.0565,4.325819 -1.328366,4.325819 -0.115904,0 -0.210741,-0.09231 -0.210741,-0.205122 z m 9.759788,-0.08831 c 0,-0.393151 0.404273,-0.842714 0.603308,-0.67089 0.08755,0.07558 0.159167,0.323473 0.159167,0.550873 0,0.299008 -0.105529,0.413454 -0.381242,0.413454 -0.222155,0 -0.381242,-0.122449 -0.381242,-0.293437 z m 5.061423,-0.07933 c 0.02826,-0.205021 0.186761,-0.372772 0.35221,-0.372772 0.165453,0 0.323944,0.167761 0.352211,0.372772 0.03849,0.279209 -0.04991,0.372776 -0.352211,0.372776 -0.3023,0 -0.390706,-0.09357 -0.35221,-0.372776 z M 3.2836672,29.541118 C 3.059282,29.043185 2.6723108,28.28121 2.4237312,27.847826 2.1146153,27.308902 2.0059514,26.938613 2.0799227,26.676251 c 0.094814,-0.336289 0.1651558,-0.291647 0.570283,0.361942 0.2541707,0.41005 0.6526482,1.154992 0.8855054,1.655426 l 0.423377,0.909877 0.7938181,-1.495738 c 0.7085949,-1.335163 1.0698617,-1.685999 1.0698617,-1.038977 0,0.451781 -1.6099588,3.356352 -1.8661715,3.366812 -0.1509897,0.006 -0.4404383,-0.378581 -0.6729292,-0.894489 z M 7.5348259,28.710909 C 7.1856923,27.756373 6.9361959,26.893666 6.9803895,26.793785 7.152494,26.404804 7.3637487,26.658278 7.8306811,27.813956 8.2510203,28.854327 8.3316862,28.957387 8.4312858,28.581302 8.6172501,27.879093 8.829965,27.844474 9.2325293,28.4509 l 0.3782848,0.569858 0.1657772,-0.859961 c 0.1819116,-0.943658 0.5274877,-1.506462 0.6939697,-1.130192 0.05502,0.124365 -0.0418,0.755679 -0.215168,1.402927 -0.17336,0.647243 -0.3152131,1.364925 -0.3152131,1.594846 0,0.641722 -0.3917501,0.496883 -0.7417913,-0.274257 L 8.884138,29.061829 8.7110122,29.754124 c -0.095226,0.380762 -0.255991,0.692296 -0.357262,0.692296 -0.1012782,0 -0.4697836,-0.780985 -0.8189171,-1.735519 z m 15.2155621,1.575758 c 3.04e-4,-0.08786 0.274542,-0.734898 0.609501,-1.437843 0.33496,-0.702946 0.609236,-1.349975 0.609503,-1.437844 3.04e-4,-0.08786 -0.348352,-0.15976 -0.774708,-0.15976 -0.552378,0 -0.756928,-0.07653 -0.711651,-0.266269 0.04202,-0.176114 0.394798,-0.266266 1.04206,-0.266266 0.873476,0 0.983368,0.04735 1.023672,0.441112 0.02484,0.242609 -0.19667,0.932163 -0.492227,1.532333 l -0.537374,1.091224 0.632869,0.06526 c 0.348079,0.0359 0.661078,0.185096 0.695554,0.331538 0.04618,0.19619 -0.221586,0.266269 -1.017499,0.266269 -0.594102,0 -1.079967,-0.0719 -1.0797,-0.15976 z M 13.964137,29.611049 13.700943,28.988681 13.21676,29.50454 c -0.886111,0.944084 -1.199505,0.437505 -0.345464,-0.558419 l 0.491169,-0.572772 -0.432521,-0.792097 c -0.334295,-0.612211 -0.391044,-0.848473 -0.249881,-1.040346 0.140057,-0.190354 0.283694,-0.08078 0.616034,0.469924 l 0.433394,0.718172 0.499095,-0.651546 c 0.274501,-0.35835 0.554193,-0.60398 0.621538,-0.545842 0.237592,0.205098 0.118083,0.713779 -0.245991,1.046994 -0.537317,0.49178 -0.56678,0.8102 -0.153565,1.659628 0.446346,0.917525 0.452052,0.995176 0.07313,0.995176 -0.165813,0 -0.41231,-0.274155 -0.559564,-0.622363 z M 33.14814,28.68905 c 0.03278,-0.474888 0.155546,-0.75833 0.390905,-0.902567 0.666913,-0.408702 0.323707,-0.961304 -0.597044,-0.961304 -0.632297,0 -0.481071,-0.512309 0.177718,-0.602035 0.809509,-0.110253 1.219939,0.314408 1.219939,1.262257 0,0.668743 -0.05674,0.812501 -0.343117,0.869314 -0.220505,0.04374 -0.360533,0.239338 -0.39185,0.547348 -0.0268,0.263604 -0.151242,0.479281 -0.276531,0.479281 -0.165147,0 -0.214656,-0.190429 -0.180006,-0.692294 z m -5.030007,-1.06507 c 0.02496,-0.732233 0.114031,-1.331334 0.197899,-1.331334 0.08388,0 0.172928,0.599101 0.197899,1.331334 0.03762,1.103296 0.0038,1.331338 -0.197899,1.331338 -0.201625,0 -0.235521,-0.228042 -0.197899,-1.331338 z m 4.268399,-4.47329 c -0.352057,-1.052351 -0.56522,-3.049133 -0.345733,-3.238615 0.196089,-0.169297 0.468893,0.564414 0.468893,1.261077 0,0.771735 0.394665,2.01049 0.691174,2.169422 0.406125,0.217701 0.660094,-0.37554 0.788886,-1.842738 0.159365,-1.815521 0.435689,-1.610128 0.394288,0.293081 -0.03858,1.77353 -0.281272,2.263084 -1.121895,2.263084 -0.52465,0 -0.598183,-0.07604 -0.875613,-0.905311 z m -17.713068,0.273399 c -0.315936,-0.382745 -0.383093,-0.391939 -0.778244,-0.106503 -1.107591,0.800052 -1.774961,0.02465 -1.616122,-1.877688 0.114301,-1.369042 0.520021,-1.943354 1.23169,-1.743544 0.877871,0.246485 1.23286,0.783133 1.234565,1.866385 0.0012,0.737804 0.0833,1.069101 0.343118,1.383857 0.187874,0.227615 0.34159,0.522405 0.34159,0.655111 0,0.373459 -0.374236,0.285607 -0.756597,-0.177624 z m -0.988139,-0.745905 c 0.279455,-0.295247 0.280373,-0.313124 0.01639,-0.31952 -0.156736,-0.0038 -0.249923,-0.123777 -0.21209,-0.273042 0.03712,-0.146451 0.248707,-0.24822 0.470197,-0.226156 0.305097,0.0304 0.402712,-0.0588 0.402712,-0.36786 0,-0.516544 -0.636686,-1.111419 -1.091696,-1.020006 -0.449374,0.09027 -0.710516,1.221915 -0.459534,1.991356 0.196551,0.602576 0.448602,0.66465 0.873972,0.215236 z m -5.9462867,0.206229 c 0.082242,-0.612362 0.054238,-0.745547 -0.1567678,-0.745547 -0.1652332,0 -0.2360738,-0.133016 -0.1985356,-0.372774 0.0321,-0.205022 0.1400658,-0.348811 0.2399267,-0.319521 0.1163016,0.03411 0.1815641,-0.250308 0.1815641,-0.791307 0,-0.616982 0.079483,-0.903979 0.2949688,-1.065068 0.4318256,-0.322819 1.112279,-0.269288 1.5088401,0.118699 0.2905657,0.284287 0.3392723,0.499855 0.3007993,1.331337 l -0.045911,0.992124 -0.8006076,0.06439 -0.8006077,0.06439 v 0.734417 c 0,0.597831 -0.058015,0.734415 -0.3119029,0.734415 -0.2738689,0 -0.2996933,-0.0909 -0.2117734,-0.745548 z m 1.7436498,-1.874521 c 0,-0.654725 -0.2743986,-1.001164 -0.7929816,-1.001164 -0.3863252,0 -0.4269914,0.071 -0.4269914,0.745548 0,0.727798 0.014589,0.745549 0.6099874,0.745549 0.5348437,0 0.6099856,-0.06036 0.6099856,-0.489933 z m 18.5499829,1.821267 c -0.05198,-0.43934 -0.09528,-1.20619 -0.0962,-1.704108 l -0.0017,-0.905308 h -0.622694 c -0.430379,0 -0.603071,-0.08225 -0.559154,-0.266269 0.04508,-0.188945 0.499003,-0.266266 1.563091,-0.266266 1.064089,0 1.518002,0.07731 1.56309,0.266266 0.04541,0.190304 -0.163219,0.266269 -0.731341,0.266269 H 28.35288 l 0.106411,1.704108 c 0.08799,1.408959 0.06844,1.70411 -0.11286,1.70411 -0.134905,0 -0.255637,-0.307318 -0.313795,-0.798802 z M 16.955027,21.866743 c 0,-1.743136 0.183146,-2.286637 0.912799,-2.708808 0.406381,-0.235137 0.506795,-0.220746 0.768557,0.110172 0.41762,0.527923 0.415082,1.803948 -0.004,1.956992 -0.406392,0.148438 -0.38686,0.274689 0.152503,0.985776 0.251619,0.331735 0.45749,0.690883 0.45749,0.798109 0,0.437403 -0.566798,0.134905 -1.067478,-0.569707 l -0.533737,-0.751138 -0.0469,0.864408 c -0.03752,0.69139 -0.106195,0.864409 -0.343121,0.864409 -0.266166,0 -0.296225,-0.157295 -0.296225,-1.550205 z m 1.524968,-1.546762 c 0,-0.15737 -0.0672,-0.344128 -0.149351,-0.415039 -0.241801,-0.208745 -0.765635,0.29703 -0.765635,0.739242 0,0.360219 0.05303,0.381629 0.45749,0.184693 0.25162,-0.122531 0.457491,-0.35152 0.457491,-0.508882 z M 2.9236591,22.511639 C 2.2166934,20.891992 2.7882997,19.49905 3.9488858,20.013277 c 1.0542626,0.467117 1.2638954,0.760424 1.2638954,1.768376 0,0.501076 -0.082348,1.026076 -0.182996,1.166665 -0.1006478,0.140589 -0.5477093,0.255617 -0.99347,0.255617 -0.7507305,0 -0.8327492,-0.05103 -1.1126561,-0.692296 z m 1.8012178,-0.60402 c 0.05148,-0.618611 -0.1296823,-0.881202 -0.8370657,-1.213295 -0.3887371,-0.182504 -0.5236603,-0.165295 -0.6728624,0.08582 -0.1488662,0.250559 -0.1349578,0.465446 0.068742,1.062125 0.2330024,0.682512 0.3052828,0.742243 0.825359,0.682062 0.4847168,-0.05608 0.5768503,-0.148363 0.6158274,-0.616723 z m 17.3325191,0.643102 c -0.169955,-0.38413 0.05648,-0.495259 0.884138,-0.433899 0.789628,0.05854 0.792781,0.05626 0.514366,-0.373478 -0.154069,-0.237804 -0.478887,-0.493364 -0.721809,-0.567893 -0.358894,-0.110103 -0.441678,-0.247213 -0.441678,-0.731538 0,-0.762515 0.319895,-1.12663 1.0163,-1.156781 0.771669,-0.03341 0.815564,0.419644 0.05708,0.589066 -0.742033,0.165747 -0.777755,0.379917 -0.131159,0.786382 0.588008,0.369636 1.116083,1.318987 0.989663,1.779174 -0.07096,0.258284 -0.320987,0.336154 -1.079364,0.336154 -0.542857,0 -1.032247,-0.102219 -1.087535,-0.227187 z M 8.1381481,16.868461 c -0.662488,-0.05226 -0.9445374,-0.155861 -0.9032194,-0.33173 0.033044,-0.140665 0.2365132,-0.285123 0.4521554,-0.321044 0.4494286,-0.07487 0.5704365,-0.499267 0.5735489,-2.011575 0.00198,-0.988935 -0.00847,-1.011815 -0.4681159,-1.011815 -0.3083824,0 -0.4483311,-0.09163 -0.4066579,-0.266269 0.085615,-0.358771 2.2748826,-0.372184 2.3602477,-0.01434 0.036311,0.152162 -0.1396785,0.278601 -0.4447812,0.31952 l -0.5048727,0.0677 -0.076242,1.384589 -0.076242,1.384591 0.5215171,0.215036 c 0.6141606,0.253251 0.8263768,0.764132 0.2917994,0.702469 -0.1957031,-0.02264 -0.7893091,-0.07525 -1.3191241,-0.117042 z M 17.79376,14.792035 c 0,-2.265325 0.236099,-3.159608 0.381242,-1.444053 l 0.07624,0.901234 0.717228,-0.653694 c 0.653699,-0.595793 1.036485,-0.668621 1.036485,-0.197197 0,0.09948 -0.301171,0.44703 -0.669268,0.772319 l -0.669267,0.591435 0.515449,0.759462 c 0.283496,0.417701 0.516042,0.879278 0.516769,1.025727 0.0025,0.498867 -0.423509,0.267953 -0.89786,-0.486694 L 18.32749,15.307612 v 0.859468 c 0,0.67677 -0.05674,0.859335 -0.266868,0.858844 -0.237163,-5.56e-4 -0.26687,-0.249226 -0.26687,-2.233887 z m -15.2933176,-0.0033 c 0.042864,-1.988437 0.3035917,-2.882723 0.3949305,-1.354596 0.040292,0.674078 0.1069986,0.791415 0.5146763,0.905308 0.7984406,0.22306 0.8668301,0.17322 0.9166704,-0.66795 0.092487,-1.560929 0.3524727,-0.792081 0.3961699,1.171575 0.036882,1.657369 0.00659,1.970379 -0.1906208,1.970379 -0.1718812,0 -0.2344677,-0.227438 -0.2344677,-0.852056 0,-0.74074 -0.044825,-0.852434 -0.3431177,-0.854963 -0.1887147,-0.0016 -0.4975205,-0.0607 -0.6862352,-0.131359 -0.3195559,-0.11963 -0.3431175,-0.06091 -0.3431175,0.854962 0,0.742432 -0.057404,0.983406 -0.2342672,0.983406 -0.1973221,0 -0.2273841,-0.319306 -0.190621,-2.024714 z m 9.5365656,1.805051 c -0.287811,-0.245374 -0.363744,-1.16263 -0.114084,-1.378157 0.08402,-0.07253 0.219579,0.113511 0.301218,0.413456 0.169271,0.621929 0.156447,0.615553 0.679798,0.33761 0.364731,-0.1937 0.391168,-0.301677 0.391168,-1.597603 V 12.97923 h -0.470197 c -0.308383,0 -0.448331,-0.09163 -0.406658,-0.266267 0.04191,-0.175636 0.392254,-0.266266 1.029352,-0.266266 0.637097,0 0.987439,0.09062 1.029353,0.266266 0.03989,0.167208 -0.08303,0.266267 -0.33041,0.266267 -0.387161,0 -0.393989,0.02662 -0.396284,1.544348 -0.0013,0.849395 -0.05481,1.659667 -0.118948,1.800608 -0.162589,0.357298 -1.271518,0.544841 -1.594308,0.269628 z m 19.73838,-1.032354 c 0.06816,-1.316212 0.450718,-2.429429 0.772732,-2.248585 0.104664,0.0588 0.395226,0.492686 0.645671,0.964223 l 0.455356,0.85734 0.123072,-0.704803 c 0.207973,-1.191 0.260029,-1.325913 0.423503,-1.097564 0.222812,0.311233 3.6e-5,3.268446 -0.246222,3.268446 -0.106628,0 -0.44573,-0.479281 -0.753573,-1.065068 -0.307844,-0.585788 -0.61449,-1.065069 -0.681438,-1.065069 -0.159347,0 -0.305096,0.78189 -0.307709,1.650856 -0.0015,0.494993 -0.0725,0.692295 -0.249156,0.692295 -0.207097,0 -0.236583,-0.20258 -0.182236,-1.252071 z m -8.442259,0.883133 -0.712995,-0.07913 -0.05346,-1.746341 c -0.06061,-1.980478 -0.04515,-2.093166 0.264354,-1.927262 0.166858,0.08944 0.22386,0.493878 0.22386,1.588302 v 1.468306 h 0.579487 c 0.542567,0 0.945481,0.290481 0.945481,0.681644 0,0.09372 -0.1201,0.153143 -0.26687,0.132003 -0.146775,-0.02113 -0.587716,-0.074 -0.979864,-0.117521 z m 3.586265,-1.172364 c 0.09159,-1.080297 0.460039,-2.069838 0.835824,-2.244809 0.100719,-0.0469 0.274805,0.219362 0.386874,0.591654 l 0.20376,0.676916 0.32833,-0.777314 c 0.191396,-0.453125 0.39898,-0.71632 0.497731,-0.631068 0.190991,0.164893 0.799397,2.022707 0.954328,2.914135 0.08561,0.49258 0.05283,0.58579 -0.206089,0.58579 -0.187264,0 -0.31233,-0.146049 -0.319207,-0.372776 -0.0063,-0.205021 -0.132618,-0.756199 -0.280872,-1.224828 l -0.269561,-0.852057 -0.207253,0.798803 c -0.271094,1.044847 -0.669022,1.058418 -0.934766,0.03188 l -0.198536,-0.766924 -0.185698,0.607164 c -0.102143,0.333941 -0.188794,0.870768 -0.192578,1.192951 -0.0047,0.396908 -0.08748,0.58579 -0.256863,0.58579 -0.211861,0 -0.235566,-0.170101 -0.15542,-1.115304 z M 4.3386495,9.3580486 C 4.1297937,8.6153541 4.0374357,8.5059925 3.6190684,8.5059925 c -0.410112,0 -0.5080628,0.1085111 -0.6729737,0.7455501 -0.1842086,0.7115776 -0.630751,1.0463074 -0.630751,0.4728126 0,-0.4193319 1.0588257,-3.8433636 1.2900956,-4.1719115 0.1725908,-0.2452006 0.2430713,-0.2091979 0.4487043,0.2291996 0.1341743,0.2860365 0.3738278,1.1837814 0.5325649,1.9949866 0.1587365,0.8112052 0.3382333,1.6905967 0.3988803,1.9542013 0.084956,0.3692608 0.050861,0.4792808 -0.1485312,0.4792808 -0.1603323,0 -0.3499639,-0.3241875 -0.4984081,-0.8520558 z M 3.9904723,7.4941786 C 3.9857894,6.747411 3.7509534,6.5453858 3.5617672,7.1253813 3.3271178,7.8447533 3.3308909,7.8669511 3.6878147,7.8669511 c 0.189695,0 0.3041106,-0.1409161 0.3026576,-0.3727725 z M 27.42092,9.7308237 c -0.185579,-0.96729 -0.104862,-3.5056856 0.119758,-3.7660799 0.285478,-0.3309481 1.949735,-0.2124435 2.034109,0.1448409 0.04569,0.1934485 -0.190786,0.2662664 -0.864809,0.2662664 -0.876103,0 -0.927688,0.028279 -0.927688,0.508355 0,0.4544012 0.09177,0.5278784 0.864675,0.6922957 0.513138,0.1091653 0.89353,0.3057562 0.93565,0.4835706 0.05816,0.245553 -0.100432,0.2746042 -0.878867,0.1609681 l -0.949842,-0.138677 0.104755,1.0638755 c 0.08491,0.862397 0.06208,1.063876 -0.120515,1.063876 -0.1239,0 -0.266648,-0.2156894 -0.31722,-0.4792813 z M 7.6855179,7.8174682 7.7289758,5.6378464 8.4152106,5.7032853 c 0.3774293,0.035977 0.7646623,0.1780762 0.8605173,0.3157518 0.2775001,0.3985757 0.4195328,3.0068181 0.1781509,3.271404 -0.1692353,0.1854981 -1.4388607,0.7066615 -1.7215136,0.7066615 -0.049666,0 -0.070747,-0.9808305 -0.046844,-2.1796218 z M 9.1014475,8.6895937 C 9.2868787,8.4314662 8.7959666,7.8669511 8.3860645,7.8669511 c -0.2069692,0 -0.2758467,0.1653206 -0.2758467,0.662135 0,0.6153893 0.029611,0.6519204 0.4193671,0.51746 0.2306507,-0.079578 0.4879889,-0.240194 0.5718626,-0.3569524 z M 8.993397,6.8293945 C 8.966524,6.6312413 8.7669773,6.4534444 8.5282737,6.4149585 8.175538,6.3580989 8.1102106,6.4272865 8.1102106,6.8573488 c 0,0.4471251 0.057168,0.4980699 0.4651233,0.4144334 C 8.9029563,7.2046073 9.0265453,7.0738303 8.993397,6.8293945 Z M 21.987411,7.8479686 V 5.7195832 l 1.245825,0.061867 c 0.827908,0.041111 1.266992,0.151181 1.30893,0.3281351 0.0465,0.1962411 -0.220939,0.2662689 -1.01708,0.2662689 -1.044077,0 -1.080185,0.01736 -1.080185,0.5208616 0,0.4688852 0.07109,0.5273424 0.71244,0.5857896 1.017419,0.092712 1.070435,0.5974584 0.06275,0.5974584 -0.725206,0 -0.775192,0.034342 -0.775192,0.5325353 0,0.5168864 0.03111,0.5325328 1.058477,0.5325328 0.585175,0 1.103425,0.101592 1.158998,0.2271869 0.146468,0.3310637 0.118245,0.3411399 -1.340618,0.4784961 L 21.987409,9.9763597 Z M 32.733135,9.7944032 C 32.175031,9.4784073 32.007406,8.9955185 32.09198,7.947405 c 0.119542,-1.4815421 0.953345,-2.8435909 1.366612,-2.2324308 0.156969,0.2321431 0.157257,0.3073185 0.0015,0.3870049 -0.359076,0.1836615 -0.636345,0.7148207 -0.81991,1.5706531 -0.23647,1.1024823 0.0299,1.5321974 0.966799,1.5596636 0.559319,0.016354 0.65639,-0.043751 0.65639,-0.4067825 0,-0.3086419 -0.118047,-0.4449339 -0.428407,-0.4946483 -0.651603,-0.1043596 -0.403297,-0.560955 0.346604,-0.6373356 0.642724,-0.065464 1.225141,0.322731 0.806163,0.5373206 -0.104845,0.053689 -0.19062,0.2876566 -0.19062,0.5199131 0,0.9186572 -0.275647,1.2470792 -1.034719,1.232824 -0.395446,-0.00754 -0.858624,-0.092561 -1.029282,-0.1891965 z M 17.397249,9.6339636 c -0.0085,-0.093165 -0.0022,-0.9841918 0.01369,-1.9800296 0.03937,-2.4553934 0.307379,-2.852306 1.209757,-1.7916834 0.423857,0.4981856 0.469192,0.6699393 0.469192,1.7776043 0,0.9017152 -0.0706,1.3122691 -0.26687,1.5516857 -0.29815,0.3637151 -1.402088,0.7062515 -1.425856,0.442423 z M 18.449496,8.6764002 C 18.780615,8.2138827 18.669526,6.9247425 18.25125,6.3758537 L 17.870008,5.8755648 v 1.5282273 c 0,1.5529939 0.147261,1.8763766 0.579488,1.2726132 z M 13.066361,9.1747318 C 12.266153,8.4842953 12.027682,7.9675246 12.136248,7.1591625 c 0.122243,-0.9102164 0.478929,-1.3645446 1.143743,-1.4568509 0.684668,-0.095051 0.829675,0.4140233 0.170388,0.5982081 -0.264508,0.073892 -0.588257,0.3631693 -0.719439,0.6428354 -0.219763,0.4685005 -0.215953,0.5439803 0.04845,0.9599761 0.157834,0.2483205 0.578617,0.6337756 0.935079,0.8565646 0.35646,0.2227838 0.64811,0.4964396 0.64811,0.6081158 0,0.3442923 -0.813823,0.2229349 -1.296222,-0.1932723 z"
       style="fill:#ffffff;stroke:#000000;stroke-width:0.3;stroke-miterlimit:4;stroke-dasharray:none" />
  </g>
</svg>
